<svg width="36" height="36" viewBox="0 0 36 36" fill="none" xmlns="http://www.w3.org/2000/svg">
<g clip-path="url(#clip0_28252_38372)">
<path fill-rule="evenodd" clip-rule="evenodd" d="M18 33C26.2843 33 33 26.2843 33 18C33 9.71573 26.2843 3 18 3C9.71573 3 3 9.71573 3 18C3 26.2843 9.71573 33 18 33ZM22.5 15C22.5 12.5186 20.4814 10.5 18 10.5C15.5186 10.5 13.5 12.5186 13.5 15C13.5 17.4814 15.5186 19.5 18 19.5C20.4814 19.5 22.5 17.4814 22.5 15ZM9 26.655V27H18H27V26.655C27 25.74 26.64 24.855 26.0229 24.285C23.8243 22.23 21.0343 21 18 21C14.9657 21 12.1757 22.23 9.97714 24.285C9.36 24.855 9 25.725 9 26.655Z" fill="#E3F2FD"/>
</g>
<defs>
<clipPath id="clip0_28252_38372">
<rect width="36" height="36" fill="white"/>
</clipPath>
</defs>
</svg>
