<svg width="169" height="15" viewBox="0 0 169 15" fill="none" xmlns="http://www.w3.org/2000/svg">
<path d="M4.04328 11.0354H11.2918C12.1659 11.0354 12.7487 10.834 12.7487 10.0657C12.7487 9.16924 12.1659 8.96792 11.2918 8.96792H4.04328V11.0354ZM4.04328 6.22354H11.2007C11.9475 6.22354 12.3845 5.94919 12.3845 5.19892C12.3845 4.43058 11.9475 4.15596 11.2007 4.15596H4.04328V6.22354ZM0 0.972579H11.6378C14.8614 0.972579 16.4278 1.85084 16.4278 4.44864C16.4278 6.7175 15.6083 7.15666 14.479 7.48597V7.5408C16.2455 7.76032 16.9013 8.71178 16.9013 10.706C16.9013 13.6151 15.1893 14.2189 12.8764 14.2189H0V0.972579ZM19.3443 0.972579H23.3876V8.62028C23.3876 10.3035 23.9884 10.9622 25.6458 10.9622H29.6526C31.3099 10.9622 31.911 10.3035 31.911 8.62028V0.972579H35.9542V9.49855C35.9542 12.7918 34.2605 14.3652 30.545 14.3652H24.7533C21.038 14.3652 19.3443 12.7918 19.3443 9.49855V0.972579ZM38.0512 11.0354L47.5035 4.19276V4.15596H38.3062V0.972579H53.4774V4.15596L44.0433 10.9987V11.0354H53.696V14.2189H38.0512V11.0354ZM55.1552 11.0354L64.6074 4.19276V4.15596H55.4102V0.972579H70.581V4.15596L61.1469 10.9987V11.0354H70.7996V14.2189H55.1552V11.0354ZM71.6577 0.972579H75.61L78.4144 10.706H78.4512L81.8021 0.972579H85.5541L88.905 10.706H88.9417L91.7462 0.972579H95.6985L91.4183 14.2189H86.7745L83.6965 5.47326H83.6597L80.5817 14.2189H75.9379L71.6577 0.972579ZM121.494 7.48597H128.178C129.271 7.48597 129.671 7.04684 129.671 6.09538V5.65638C129.671 4.4854 129.088 4.26579 127.813 4.26579H121.494V7.48597ZM117.45 0.972579H129.653C132.767 0.972579 133.605 2.52769 133.605 4.90611V5.74787C133.605 7.5225 133.204 8.56542 131.347 9.00459V9.04108C132.549 9.26073 133.55 9.79122 133.55 11.9685V14.2189H129.507V12.6272C129.507 11.2366 129.106 10.7792 127.85 10.7792H121.494V14.2189H117.45V0.972579ZM136.339 0.972579H140.382V10.8158H149.471V14.2189H136.339V0.972579ZM155.373 10.8158H162.549C164.279 10.8158 164.953 10.3218 164.953 8.4373V6.6442C164.953 4.75978 164.279 4.26579 162.549 4.26579H155.373V10.8158ZM151.33 0.972579H163.532C167.576 0.972579 168.996 2.30804 168.996 5.58309V9.60824C168.996 12.8833 167.576 14.2189 163.532 14.2189H151.33V0.972579Z" fill="white"/>
</svg>
