<svg width="16" height="16" viewBox="0 0 16 16" fill="none" xmlns="http://www.w3.org/2000/svg">
<path d="M10.1689 4.78047C10.1689 5.01543 9.98073 5.20005 9.74127 5.20005H6.51717C6.27771 5.20005 6.08954 5.01543 6.08954 4.78047C6.08954 4.54551 6.27771 4.36089 6.51717 4.36089H9.74127C9.98086 4.36089 10.1689 4.54551 10.1689 4.78047ZM10.152 7.21963C10.152 6.98467 9.96384 6.80005 9.72438 6.80005H3.66616C3.4267 6.80005 3.23854 6.98467 3.23854 7.21963C3.23854 7.45459 3.4267 7.63921 3.66616 7.63921H9.70727C9.96392 7.63921 10.152 7.45459 10.152 7.21963ZM7.51477 10.0392C7.68587 9.73717 7.89108 9.45174 8.13055 9.20005H3.6462C3.40674 9.20005 3.21858 9.38467 3.21858 9.61963C3.21858 9.85459 3.40674 10.0392 3.6462 10.0392H7.51477ZM12.0107 7.21681C12.1476 7.20007 12.4213 7.20007 12.4213 7.20007C12.4213 7.20007 12.712 7.20007 12.866 7.21681V2.57904C12.866 1.58886 12.062 0.800049 11.0529 0.800049L5.11743 0.800166C5.01482 0.800166 4.91221 0.816907 4.8096 0.850507C4.707 0.884106 4.62144 0.951188 4.55307 1.01839L1.43966 3.95534C1.35411 4.02242 1.30281 4.12322 1.2515 4.22389C1.21738 4.30783 1.2002 4.42526 1.2002 4.52593V13.4211C1.2002 14.4112 2.00413 15.2 3.01329 15.2H12.8002C12.8002 14.8 12.8002 14.8 12.8002 14.3609H12.0107H3.01332C2.4831 14.3609 2.05548 13.9413 2.05548 13.4211L2.05536 4.77768H3.5777C4.56979 4.77768 5.3908 3.97212 5.3908 2.99869V1.63927H11.0697C11.5999 1.63927 12.0275 2.05886 12.0275 2.57911V7.21688L12.0107 7.21681Z" fill="#1976D2"/>
<path d="M12.0107 14.3609H12.8002V13.2C12.8002 13.2 12.5627 13.212 12.4055 13.212C12.2482 13.212 12.0107 13.2 12.0107 13.2V14.3609Z" fill="#1976D2"/>
<g clip-path="url(#clip0_15092_101585)">
<path d="M11.5998 8.2666C10.2665 8.2666 9.12784 9.09593 8.6665 10.2666C9.12784 11.4373 10.2665 12.2666 11.5998 12.2666C12.9332 12.2666 14.0718 11.4373 14.5332 10.2666C14.0718 9.09593 12.9332 8.2666 11.5998 8.2666ZM11.5998 11.5999C10.8638 11.5999 10.2665 11.0026 10.2665 10.2666C10.2665 9.5306 10.8638 8.93327 11.5998 8.93327C12.3358 8.93327 12.9332 9.5306 12.9332 10.2666C12.9332 11.0026 12.3358 11.5999 11.5998 11.5999ZM11.5998 9.4666C11.1572 9.4666 10.7998 9.82394 10.7998 10.2666C10.7998 10.7093 11.1572 11.0666 11.5998 11.0666C12.0425 11.0666 12.3998 10.7093 12.3998 10.2666C12.3998 9.82394 12.0425 9.4666 11.5998 9.4666Z" fill="#1976D2"/>
</g>
<defs>
<clipPath id="clip0_15092_101585">
<rect width="6.4" height="6.4" fill="white" transform="translate(8.3999 7.19995)"/>
</clipPath>
</defs>
</svg>
