<svg width="39" height="35" viewBox="0 0 39 35" fill="none" xmlns="http://www.w3.org/2000/svg">
<path d="M4.61332 34.578H34.6395C37.7099 34.578 39.6239 31.2484 38.0887 28.5967L23.0756 2.65773C21.5404 0.00601697 17.7124 0.00601697 16.1772 2.65773L1.1641 28.5967C-0.371104 31.2484 1.54291 34.578 4.61332 34.578ZM19.6264 20.6216C18.5298 20.6216 17.6326 19.7244 17.6326 18.6278V14.6403C17.6326 13.5437 18.5298 12.6465 19.6264 12.6465C20.723 12.6465 21.6202 13.5437 21.6202 14.6403V18.6278C21.6202 19.7244 20.723 20.6216 19.6264 20.6216ZM21.6202 28.5967H17.6326V24.6091H21.6202V28.5967Z" fill="#FFB337"/>
</svg>
