<svg width="400" height="400" viewBox="0 0 400 400" fill="none" xmlns="http://www.w3.org/2000/svg">
<path d="M335.128 100.336C366.56 125.808 363.544 160.776 336.6 180.712C323.68 190.312 297.672 188.424 282.872 195.168C263.568 203.968 253.768 220.28 238.976 233.304C202.176 265.688 190.176 249.68 148.32 250.104C118.872 250.4 90.8721 275.224 61.3601 258.176C25.3041 237.376 47.6321 195.64 77.0801 179.536C110.896 161.04 89.6001 117.6 138.264 85.528C186.12 54.016 288.448 61.448 335.128 100.336Z" fill="#8E99B2"/>
<path opacity="0.9" d="M335.128 100.336C366.56 125.808 363.544 160.776 336.6 180.712C323.68 190.312 297.672 188.424 282.872 195.168C263.568 203.968 253.768 220.28 238.976 233.304C202.176 265.688 190.176 249.68 148.32 250.104C118.872 250.4 90.8721 275.224 61.3601 258.176C25.3041 237.376 47.6321 195.64 77.0801 179.536C110.896 161.04 89.6001 117.6 138.264 85.528C186.12 54.016 288.448 61.448 335.128 100.336Z" fill="white"/>
<path d="M200 342.048C285.666 342.048 355.112 337.993 355.112 332.992C355.112 327.99 285.666 323.936 200 323.936C114.334 323.936 44.8882 327.99 44.8882 332.992C44.8882 337.993 114.334 342.048 200 342.048Z" fill="#F5F5F5"/>
<path d="M69.376 96.52C68.576 92.992 68.928 90.032 70.448 87.616C71.968 85.2 74.448 83.616 77.976 82.816C81.504 82.016 84.552 82.336 86.936 83.824C89.32 85.312 90.936 87.824 91.736 91.264C92.3008 93.3872 92.3474 95.615 91.872 97.76C91.4069 99.5414 90.4241 101.145 89.048 102.368C87.4134 103.744 85.4516 104.675 83.352 105.072C81.2938 105.618 79.1387 105.692 77.048 105.288C75.2306 104.846 73.5868 103.871 72.328 102.488C70.824 100.801 69.804 98.7391 69.376 96.52ZM76.048 95.032C76.544 97.208 77.304 98.68 78.328 99.448C78.8566 99.8005 79.451 100.042 80.0754 100.159C80.6999 100.276 81.3416 100.265 81.9618 100.128C82.5821 99.9904 83.1682 99.7289 83.6848 99.3591C84.2014 98.9893 84.6378 98.5188 84.968 97.976C85.544 96.864 85.552 95.096 85.008 92.688C84.544 90.656 83.7946 89.264 82.76 88.512C82.239 88.1381 81.6409 87.8858 81.0096 87.7737C80.3782 87.6615 79.7298 87.6924 79.112 87.864C78.4936 87.9798 77.9095 88.2344 77.4038 88.6085C76.898 88.9826 76.4837 89.4666 76.192 90.024C75.6 91.2 75.544 92.8 76.048 95.032Z" fill="#263238"/>
<path d="M94.8719 93.88C94.5878 92.7898 94.5371 91.6518 94.7232 90.5406C94.9093 89.4295 95.328 88.3701 95.9519 87.432C96.6514 86.4353 97.5407 85.5866 98.569 84.9345C99.5973 84.2824 100.744 83.8398 101.944 83.632C105.075 82.9227 107.645 83.2933 109.656 84.744C111.348 86.0557 112.498 87.9442 112.888 90.0494C113.277 92.1547 112.879 94.3297 111.768 96.16C110.52 98.064 108.488 99.3333 105.672 99.968C103.502 100.575 101.188 100.387 99.1439 99.44C98.051 98.9059 97.0966 98.1259 96.3555 97.1613C95.6143 96.1967 95.1065 95.0736 94.8719 93.88ZM100.88 92.496C101.042 93.6139 101.588 94.6407 102.424 95.4C102.755 95.6509 103.138 95.8266 103.544 95.915C103.95 96.0033 104.371 96.0021 104.776 95.9115C105.182 95.8209 105.563 95.6431 105.893 95.3904C106.224 95.1376 106.495 94.8161 106.688 94.448C107.107 93.3734 107.146 92.1881 106.8 91.088C106.632 89.9963 106.092 88.9961 105.272 88.256C104.954 87.998 104.58 87.8169 104.181 87.7267C103.781 87.6365 103.366 87.6397 102.968 87.736C102.553 87.822 102.163 88.0014 101.827 88.2606C101.492 88.5199 101.22 88.852 101.032 89.232C100.601 90.2687 100.547 91.4237 100.88 92.496Z" fill="#263238"/>
<path d="M118.864 102.856L113.96 81.256L119.56 79.976L120.088 82.288C120.483 81.3659 121.057 80.5312 121.776 79.832C122.565 79.162 123.508 78.6976 124.52 78.48C125.455 78.2256 126.44 78.211 127.382 78.4375C128.324 78.664 129.194 79.1243 129.912 79.776C131.493 81.254 132.566 83.1948 132.976 85.32C133.568 87.92 133.392 90.048 132.464 91.72C132.023 92.5194 131.413 93.2132 130.676 93.7534C129.94 94.2935 129.095 94.667 128.2 94.848C127.338 95.0524 126.444 95.0878 125.568 94.952C124.728 94.8048 123.927 94.4862 123.216 94.016L124.912 101.48L118.864 102.856ZM121.752 87.768C121.899 88.7671 122.398 89.6808 123.16 90.344C123.465 90.5778 123.82 90.7396 124.197 90.8172C124.573 90.8948 124.963 90.8862 125.336 90.792C125.682 90.7225 126.008 90.5727 126.286 90.3545C126.563 90.1364 126.786 89.856 126.936 89.536C127.276 88.5347 127.276 87.4492 126.936 86.448C126.79 85.4438 126.308 84.5188 125.568 83.824C125.294 83.5961 124.971 83.4344 124.624 83.3511C124.277 83.2679 123.916 83.2655 123.568 83.344C123.2 83.4233 122.856 83.5847 122.559 83.816C122.263 84.0474 122.022 84.3427 121.856 84.68C121.464 85.6661 121.428 86.7577 121.752 87.768Z" fill="#263238"/>
<path d="M135.544 88.24L141.368 86.328C141.678 86.891 142.16 87.3397 142.744 87.608C143.372 87.79 144.037 87.8045 144.673 87.6501C145.309 87.4958 145.893 87.1779 146.368 86.728C146.501 86.5868 146.597 86.4154 146.649 86.2286C146.7 86.0418 146.705 85.8453 146.664 85.656C146.616 85.4394 146.504 85.2422 146.343 85.0896C146.182 84.9371 145.979 84.8362 145.76 84.8C144.856 84.7008 143.944 84.7008 143.04 84.8C141.523 84.929 139.997 84.929 138.48 84.8C137.592 84.6711 136.759 84.2908 136.08 83.704C135.355 83.077 134.855 82.231 134.654 81.2942C134.454 80.3574 134.564 79.3807 134.968 78.512C135.434 77.5824 136.159 76.8074 137.056 76.28C138.332 75.555 139.718 75.0442 141.16 74.768C142.536 74.3945 143.959 74.2221 145.384 74.256C146.279 74.3136 147.147 74.5882 147.912 75.056C148.727 75.6061 149.419 76.3199 149.944 77.152L144.344 79C144.135 78.5832 143.787 78.2522 143.36 78.064C142.776 77.8552 142.143 77.8273 141.544 77.984C141.014 78.0579 140.523 78.3022 140.144 78.68C140.024 78.8088 139.937 78.9651 139.891 79.1352C139.845 79.3053 139.841 79.4841 139.88 79.656C139.923 79.8451 140.023 80.0167 140.166 80.1481C140.308 80.2795 140.488 80.3645 140.68 80.392C141.574 80.4958 142.479 80.4769 143.368 80.336C144.91 80.1124 146.476 80.0909 148.024 80.272C148.998 80.4095 149.91 80.8295 150.648 81.48C151.315 82.0849 151.779 82.8813 151.976 83.76C152.181 84.7022 152.106 85.6839 151.76 86.584C151.337 87.6496 150.6 88.5618 149.648 89.2C148.245 90.1173 146.673 90.7455 145.024 91.048C142.171 91.6986 140.037 91.7546 138.624 91.216C137.247 90.6661 136.141 89.5974 135.544 88.24Z" fill="#263238"/>
<path d="M155.08 68.456H161.648V73.496L160.44 83.632H156.376L155.08 73.512V68.456ZM155.4 85.16H161.528V90.584H155.4V85.16Z" fill="#263238"/>
<path d="M102.944 137.264H102.8C99.1999 135.864 97.0479 134.504 95.9279 132.864C95.0512 133.03 94.1442 132.907 93.3439 132.512C92.4064 132.053 91.6287 131.323 91.1119 130.416C90.8403 130.624 90.5204 130.761 90.1819 130.813C89.8435 130.864 89.4974 130.83 89.1759 130.712C88.19 130.343 87.3486 129.667 86.7759 128.784C86.4176 129.051 85.9723 129.174 85.5279 129.128C83.1279 128.936 79.9279 124.2 79.6959 119.16C79.6935 119.054 79.732 118.95 79.8035 118.872C79.8749 118.793 79.9738 118.744 80.0799 118.736C80.1324 118.734 80.1849 118.742 80.2342 118.76C80.2836 118.778 80.3289 118.806 80.3675 118.842C80.4062 118.877 80.4374 118.92 80.4594 118.968C80.4814 119.016 80.4938 119.067 80.4959 119.12C80.7199 123.92 83.7839 128.184 85.5999 128.328C85.732 128.343 85.8658 128.331 85.9935 128.294C86.1212 128.257 86.2403 128.195 86.3439 128.112C85.7182 126.971 85.3253 125.718 85.188 124.424C85.0507 123.131 85.1716 121.823 85.5439 120.576C86.2319 118.176 86.8399 117.232 87.5759 117.376C88.9519 117.72 88.7679 122.976 88.0399 126.408C87.9296 127.027 87.7015 127.619 87.3679 128.152C87.8395 128.943 88.5515 129.562 89.3999 129.92C89.626 130.006 89.8721 130.025 90.1089 129.976C90.3458 129.926 90.5634 129.81 90.7359 129.64C90.1119 128.096 89.9359 125.984 90.8319 123.296C91.9519 119.752 92.4319 119.656 92.6799 119.592C92.7732 119.572 92.87 119.578 92.9602 119.609C93.0503 119.64 93.1304 119.695 93.1919 119.768C93.9359 120.608 93.0479 126.112 92.1199 128.832C92.0112 129.159 91.8606 129.471 91.6719 129.76C92.1011 130.625 92.8004 131.327 93.6639 131.76C94.2303 132.035 94.8601 132.154 95.4879 132.104C95.4159 131.952 95.3519 131.8 95.2879 131.64C94.6559 129.92 94.9679 127.944 96.2399 125.576C97.0799 124.016 97.7679 123.28 98.4079 123.28C98.5778 123.282 98.7435 123.333 98.8853 123.427C99.0271 123.52 99.139 123.653 99.2079 123.808C99.9039 125.096 99.3999 129.344 98.0239 131.456C97.7017 131.94 97.2537 132.327 96.7279 132.576C97.7999 133.984 99.8399 135.224 103.128 136.488C103.177 136.506 103.222 136.533 103.261 136.569C103.299 136.604 103.33 136.647 103.352 136.695C103.374 136.743 103.386 136.794 103.387 136.847C103.388 136.899 103.379 136.951 103.36 137C103.329 137.083 103.271 137.154 103.196 137.202C103.121 137.25 103.033 137.271 102.944 137.264ZM98.3999 124.088C98.3999 124.088 97.9439 124.088 96.9359 125.968C95.7759 128.112 95.4799 129.88 96.0319 131.368C96.0988 131.552 96.179 131.731 96.2719 131.904C96.7052 131.725 97.0736 131.418 97.3279 131.024C98.4479 129.312 98.9839 125.792 98.5679 124.416C98.5119 124.136 98.3999 124.088 98.3999 124.088ZM92.6559 120.72C92.2229 121.631 91.8644 122.575 91.5839 123.544C90.9703 125.223 90.8646 127.045 91.2799 128.784L91.3519 128.576C92.192 126.04 92.6398 123.391 92.6799 120.72H92.6559ZM87.3919 118.2C87.2559 118.32 86.8639 118.824 86.3119 120.776C85.659 122.967 85.865 125.324 86.8879 127.368C87.052 127.01 87.1729 126.634 87.2479 126.248C88.1039 122.32 87.8639 118.768 87.4159 118.2H87.3919Z" fill="#263238"/>
<path d="M133.36 179.2C132.081 179.212 130.822 178.884 129.712 178.248C129.621 178.193 129.554 178.105 129.527 178.001C129.5 177.898 129.515 177.789 129.568 177.696C129.594 177.651 129.629 177.612 129.671 177.58C129.713 177.549 129.761 177.526 129.811 177.514C129.862 177.501 129.915 177.498 129.966 177.506C130.018 177.514 130.067 177.533 130.112 177.56C132.968 179.232 136.656 178.064 137.416 176.84C137.471 176.763 137.51 176.676 137.53 176.584C137.551 176.492 137.553 176.397 137.536 176.304C136.075 176.388 134.629 175.976 133.432 175.136C131.392 173.864 131.232 173.48 131.248 173.176C131.252 173.089 131.279 173.004 131.327 172.931C131.375 172.858 131.441 172.799 131.52 172.76C132.32 172.36 135.928 174.016 137.432 175.008C137.612 175.128 137.779 175.267 137.928 175.424C138.519 175.29 139.051 174.97 139.448 174.512C139.671 174.25 139.832 173.941 139.92 173.608H139.76C138.48 173.736 137.2 173.184 135.832 171.92C134.888 171.056 134.528 170.456 134.648 169.984C134.684 169.851 134.758 169.732 134.86 169.64C134.962 169.548 135.088 169.487 135.224 169.464C136.328 169.184 139.064 170.352 140.176 171.576C140.424 171.842 140.6 172.167 140.688 172.52C141.736 172.032 142.84 170.92 144.144 169.104C144.174 169.061 144.213 169.024 144.257 168.996C144.302 168.967 144.352 168.948 144.404 168.939C144.456 168.93 144.509 168.932 144.561 168.944C144.612 168.955 144.661 168.977 144.704 169.008C144.79 169.071 144.847 169.164 144.865 169.269C144.883 169.373 144.86 169.481 144.8 169.568C143.288 171.68 142.024 172.88 140.76 173.368C140.694 173.959 140.452 174.517 140.064 174.968C139.603 175.504 138.997 175.895 138.32 176.096C138.358 176.287 138.358 176.484 138.319 176.674C138.281 176.865 138.205 177.047 138.096 177.208C137.424 178.352 135.488 179.2 133.36 179.2ZM132.648 173.648C132.92 173.848 133.304 174.112 133.856 174.448C134.716 175.028 135.704 175.391 136.736 175.504C135.448 174.732 134.077 174.109 132.648 173.648ZM135.44 170.248C135.67 170.681 135.989 171.06 136.376 171.36C137.56 172.456 138.64 172.96 139.68 172.832H139.936C139.879 172.584 139.758 172.355 139.584 172.168C138.464 170.904 136 170.12 135.44 170.248Z" fill="#263238"/>
<path d="M143.952 178.104L131.488 180.368L120.168 118.592L96.1199 122.96L56.9199 192.56L61.1279 215.528L111.408 206.4L114.848 225.184L138.896 220.8L135.456 202.016L147.92 199.752L143.952 178.104ZM80.8719 189.6L101.672 153.144L107.472 184.776L80.8719 189.6Z" fill="#8E99B2"/>
<path d="M244.344 114.4C243.965 110.517 243.105 106.695 241.784 103.024C240.424 99.5073 238.536 96.2188 236.184 93.272C233.4 89.8437 229.942 87.0229 226.024 84.984C221.757 82.6427 216.098 81.0133 209.048 80.096C194.408 78.1867 183 80.784 174.824 87.888C166.648 94.992 161.261 108.592 158.664 128.688C157.627 136.198 157.359 143.795 157.864 151.36C158.397 158.293 159.672 163.875 161.688 168.104C164.253 173.807 168.3 178.719 173.408 182.328C178.458 185.875 185.392 188.219 194.208 189.36C209.877 191.403 221.496 188.392 229.064 180.328C236.632 172.264 241.645 158.637 244.104 139.448C245.197 131.139 245.277 122.728 244.344 114.4Z" fill="#8E99B2"/>
<path d="M201.416 181.144C199.488 181.08 197.416 180.904 195.328 180.632C188 179.68 182.336 177.824 178.48 175.12C174.634 172.405 171.594 168.701 169.68 164.4L169.64 164.312C168.104 161.112 167.096 156.512 166.656 150.712C166.19 143.745 166.437 136.749 167.392 129.832C170.248 107.656 176.144 98.4 180.584 94.544C185.768 90.048 192.768 88.016 201.968 88.336C203.856 88.4 205.856 88.568 207.912 88.832C213.816 89.632 218.496 90.912 221.808 92.72C224.67 94.1938 227.203 96.2322 229.256 98.712C231.052 100.952 232.495 103.453 233.536 106.128C234.599 109.111 235.287 112.215 235.584 115.368C236.437 123.008 236.359 130.723 235.352 138.344C233.136 155.576 228.848 167.688 222.616 174.344C217.992 179.272 211.056 181.544 201.408 181.176L201.416 181.144Z" fill="#263238"/>
<path d="M217.072 114.632L217.176 111.6L215.312 110.992C215.233 109.967 215.067 108.95 214.816 107.952L216.416 106.784L215.344 103.936L213.392 104.096C212.933 103.181 212.398 102.306 211.792 101.48L212.8 99.792L210.72 97.576L208.976 98.472C208.196 97.8011 207.361 97.1963 206.48 96.664L206.76 94.728L203.992 93.472L202.728 94.96C201.749 94.6428 200.746 94.4073 199.728 94.256L199.256 92.36L196.216 92.256L195.616 94.112C194.591 94.1941 193.574 94.3599 192.576 94.608L191.4 93.008L188.552 94.072L188.712 96.024C187.797 96.4834 186.922 97.0186 186.096 97.624L184.416 96.608L182.192 98.68L183.088 100.432C182.415 101.212 181.813 102.05 181.288 102.936L179.352 102.64L178.088 105.408L179.584 106.672C179.259 107.651 179.024 108.658 178.88 109.68L176.976 110.16L176.872 113.184L178.736 113.792C178.814 114.82 178.98 115.84 179.232 116.84L177.632 118L178.704 120.848L180.656 120.688C181.11 121.606 181.646 122.481 182.256 123.304L181.24 124.992L183.32 127.208L185.064 126.32C185.845 126.988 186.679 127.59 187.56 128.12L187.272 130.056L190.04 131.312L191.312 129.832C192.294 130.147 193.3 130.38 194.32 130.528L194.792 132.432L197.824 132.536L198.424 130.672C199.452 130.594 200.472 130.428 201.472 130.176L202.632 131.776L205.48 130.712L205.328 128.768C206.24 128.303 207.114 127.768 207.944 127.168L209.624 128.176L211.848 126.104L210.96 124.352C211.63 123.575 212.23 122.74 212.752 121.856L214.688 122.144L215.952 119.376L214.464 118.112C214.782 117.134 215.015 116.13 215.16 115.112L217.072 114.632ZM196.592 124.448C194.223 124.361 191.932 123.575 190.009 122.188C188.086 120.8 186.617 118.874 185.788 116.653C184.959 114.432 184.806 112.015 185.349 109.707C185.893 107.399 187.108 105.303 188.841 103.685C190.574 102.067 192.747 100.998 195.087 100.614C197.427 100.23 199.828 100.548 201.987 101.528C204.146 102.507 205.967 104.104 207.22 106.118C208.472 108.131 209.1 110.47 209.024 112.84C208.973 114.42 208.611 115.974 207.959 117.413C207.306 118.852 206.375 120.148 205.22 121.227C204.065 122.306 202.708 123.145 201.227 123.698C199.747 124.251 198.171 124.506 196.592 124.448Z" fill="#8E99B2"/>
<path opacity="0.3" d="M229.696 170.296L229.92 168.248L228.688 167.752C228.686 167.055 228.627 166.359 228.512 165.672L229.624 164.96L229.056 162.984H227.728C227.465 162.341 227.147 161.723 226.776 161.136L227.528 160.048L226.248 158.448L225.024 158.96C224.528 158.469 223.993 158.02 223.424 157.616L223.72 156.32L221.92 155.328L220.976 156.28C220.333 156.015 219.669 155.804 218.992 155.648L218.768 154.344L216.728 154.112L216.224 155.344C215.529 155.347 214.836 155.412 214.152 155.536L213.44 154.4L211.464 154.984V156.312C210.821 156.577 210.203 156.899 209.616 157.272L208.528 156.472L206.928 157.752L207.44 158.976C206.952 159.472 206.505 160.008 206.104 160.576L204.808 160.288L203.824 162.088L204.768 163.024C204.5 163.668 204.288 164.335 204.136 165.016L202.824 165.232L202.608 167.272L203.832 167.784C203.833 168.476 203.894 169.167 204.016 169.848L202.888 170.56L203.464 172.536H204.8C205.067 173.176 205.388 173.791 205.76 174.376L204.96 175.464L206.24 177.064L207.48 176.544C207.972 177.036 208.508 177.483 209.08 177.88L208.8 179.2L210.6 180.184L211.536 179.248C212.18 179.506 212.843 179.712 213.52 179.864L213.752 181.176L215.792 181.4L216.288 180.176C216.996 180.175 217.702 180.116 218.4 180L219.112 181.128L221.08 180.552V179.224C221.723 178.954 222.344 178.633 222.936 178.264L224.008 179.064L225.608 177.776L225.088 176.552C225.581 176.056 226.033 175.521 226.44 174.952L227.728 175.24L228.72 173.44L227.776 172.512C228.033 171.868 228.239 171.205 228.392 170.528L229.696 170.296ZM219.4 169.496C219.061 170.115 218.547 170.62 217.921 170.947C217.295 171.274 216.587 171.408 215.885 171.332C215.183 171.256 214.52 170.974 213.979 170.521C213.437 170.068 213.043 169.464 212.845 168.787C212.646 168.109 212.654 167.388 212.865 166.715C213.077 166.041 213.484 165.446 214.034 165.004C214.584 164.562 215.253 164.293 215.956 164.231C216.659 164.169 217.365 164.317 217.984 164.656C218.812 165.112 219.425 165.877 219.69 166.784C219.956 167.691 219.851 168.666 219.4 169.496Z" fill="#8E99B2"/>
<path d="M241.032 135.72L238.632 134.072C238.396 133.215 238.074 132.384 237.672 131.592L238.28 129.192L234.824 125.488L232.424 125.936C231.662 125.483 230.859 125.105 230.024 124.808L228.544 122.312L223.48 122.144L221.832 124.544C220.974 124.777 220.143 125.098 219.352 125.504L216.952 124.888L213.248 128.352L213.696 130.752C213.236 131.51 212.858 132.314 212.568 133.152L210.08 134.632L209.904 139.696L212.304 141.344C212.536 142.207 212.858 143.044 213.264 143.84L212.656 146.24L216.112 149.944L218.512 149.504C219.274 149.957 220.077 150.334 220.912 150.632L222.384 153.12L227.456 153.296L229.096 150.896C229.961 150.661 230.8 150.34 231.6 149.936L234 150.544L237.704 147.088L237.264 144.688C237.718 143.927 238.096 143.123 238.392 142.288L240.88 140.808L241.032 135.72ZM225.248 143.416C224.122 143.377 223.033 143.006 222.118 142.348C221.203 141.69 220.504 140.776 220.109 139.721C219.714 138.666 219.641 137.517 219.898 136.421C220.156 135.324 220.733 134.328 221.557 133.559C222.38 132.791 223.413 132.283 224.525 132.102C225.637 131.92 226.778 132.072 227.803 132.539C228.828 133.006 229.692 133.766 230.286 134.724C230.879 135.682 231.175 136.794 231.136 137.92C231.082 139.429 230.431 140.855 229.328 141.885C228.224 142.915 226.757 143.466 225.248 143.416Z" fill="white"/>
<path d="M258.4 95.296L258.816 94.296C259.099 94.1366 259.366 93.9518 259.616 93.744H260.544L261.632 92.144L261.28 91.288C261.415 91.0029 261.522 90.7055 261.6 90.4L262.4 89.664L262.064 87.784L261.056 87.368C260.898 87.0843 260.713 86.8164 260.504 86.568V85.64L258.944 84.552L258.08 84.912C257.764 84.8008 257.436 84.7256 257.104 84.688L256.368 83.888L254.496 84.224L254.072 85.232C253.775 85.3859 253.494 85.5681 253.232 85.776H252.312L251.224 87.376L251.576 88.232C251.468 88.5489 251.393 88.8759 251.352 89.208L250.552 89.952L250.888 91.824L251.896 92.24C252.048 92.5251 252.231 92.7933 252.44 93.04V93.96L254.04 95.048L254.896 94.696C255.216 94.8 255.545 94.8724 255.88 94.912L256.616 95.712L258.4 95.296ZM254.4 90.112C254.324 89.6946 254.374 89.2641 254.543 88.875C254.712 88.486 254.993 88.1558 255.35 87.9264C255.706 87.6969 256.123 87.5785 256.547 87.586C256.972 87.5935 257.384 87.7267 257.732 87.9687C258.081 88.2107 258.35 88.5506 258.505 88.9454C258.66 89.3403 258.695 89.7722 258.604 90.1867C258.514 90.6012 258.302 90.9795 257.997 91.2738C257.691 91.5681 257.305 91.7651 256.888 91.84C256.329 91.938 255.754 91.8115 255.288 91.4879C254.822 91.1643 254.503 90.6698 254.4 90.112Z" fill="#8E99B2"/>
<path d="M236.488 89.992L235.872 89.472C237.192 87.8347 238.824 86.4752 240.672 85.472L241.048 86.176C239.29 87.1331 237.74 88.4303 236.488 89.992Z" fill="#8E99B2"/>
<path d="M242.872 85.44L242.56 84.704C245.514 83.4202 248.745 82.9029 251.952 83.2L251.872 84C248.799 83.7103 245.702 84.2058 242.872 85.44Z" fill="#8E99B2"/>
<path d="M241.36 90.976L240.704 90.528C242.631 87.9253 245.437 86.1092 248.6 85.416L248.752 86.216C245.796 86.8617 243.171 88.5517 241.36 90.976Z" fill="#8E99B2"/>
<path d="M188.272 168C188.163 167.997 188.06 167.951 187.984 167.872L186.312 166.144C185.46 166.067 184.616 165.911 183.792 165.68L181.176 166.832C181.118 166.864 181.054 166.88 180.988 166.88C180.922 166.88 180.858 166.864 180.8 166.832L176.416 163.928C176.36 163.891 176.314 163.839 176.283 163.779C176.252 163.719 176.237 163.652 176.24 163.584V160.736C175.705 160.067 175.234 159.349 174.832 158.592L172.584 157.728C172.521 157.704 172.465 157.664 172.422 157.612C172.379 157.56 172.349 157.498 172.336 157.432L171.296 152.28C171.282 152.214 171.285 152.146 171.305 152.082C171.325 152.017 171.36 151.959 171.408 151.912L173.136 150.24C173.219 149.388 173.374 148.545 173.6 147.72L172.448 145.104C172.417 145.046 172.4 144.982 172.4 144.916C172.4 144.85 172.417 144.786 172.448 144.728L175.352 140.344C175.388 140.286 175.439 140.239 175.5 140.208C175.56 140.177 175.628 140.163 175.696 140.168L178.544 140.208C179.211 139.67 179.929 139.199 180.688 138.8L181.56 136.552C181.583 136.49 181.622 136.434 181.672 136.391C181.722 136.347 181.783 136.318 181.848 136.304L187 135.264C187.066 135.249 187.134 135.252 187.199 135.272C187.263 135.291 187.322 135.327 187.368 135.376L189.04 137.104C189.895 137.182 190.741 137.337 191.568 137.568L194.176 136.416C194.235 136.385 194.301 136.368 194.368 136.368C194.435 136.368 194.501 136.385 194.56 136.416L198.936 139.32C198.992 139.359 199.037 139.41 199.069 139.47C199.101 139.53 199.119 139.596 199.12 139.664L199.072 142.512C199.61 143.181 200.084 143.899 200.488 144.656L202.728 145.528C202.79 145.551 202.846 145.59 202.889 145.64C202.933 145.69 202.963 145.751 202.976 145.816L204.024 150.968C204.036 151.034 204.033 151.102 204.013 151.166C203.994 151.23 203.959 151.288 203.912 151.336L202.176 153.016C202.096 153.865 201.941 154.706 201.712 155.528L202.864 158.144C202.896 158.203 202.912 158.269 202.912 158.336C202.912 158.403 202.896 158.469 202.864 158.528L200 162.872C199.962 162.926 199.912 162.971 199.854 163.001C199.795 163.032 199.73 163.048 199.664 163.048L196.808 163.008C196.138 163.539 195.424 164.01 194.672 164.416L193.8 166.664C193.776 166.727 193.737 166.784 193.685 166.827C193.633 166.87 193.571 166.9 193.504 166.912L188.352 168H188.272ZM183.768 164.8C183.805 164.793 183.843 164.793 183.88 164.8C184.744 165.052 185.631 165.215 186.528 165.288C186.624 165.299 186.714 165.341 186.784 165.408L188.384 167.088L193.104 166.136L193.952 163.944C193.991 163.855 194.059 163.782 194.144 163.736C194.943 163.323 195.697 162.827 196.392 162.256C196.466 162.194 196.56 162.163 196.656 162.168L199.432 162.208L202.088 158.208L200.968 155.664C200.936 155.576 200.936 155.48 200.968 155.392C201.215 154.527 201.379 153.64 201.456 152.744C201.464 152.647 201.507 152.556 201.576 152.488L203.256 150.888L202.304 146.168L200.12 145.32C200.026 145.286 199.949 145.217 199.904 145.128C199.489 144.33 198.993 143.577 198.424 142.88C198.367 142.807 198.336 142.717 198.336 142.624V139.84L194.336 137.184L191.8 138.304C191.71 138.336 191.611 138.336 191.52 138.304C190.653 138.054 189.763 137.89 188.864 137.816C188.768 137.805 188.678 137.763 188.608 137.696L187.008 136.016L182.288 136.976L181.448 139.2C181.415 139.292 181.349 139.368 181.264 139.416C180.462 139.828 179.706 140.324 179.008 140.896C178.974 140.927 178.933 140.951 178.889 140.966C178.845 140.981 178.798 140.987 178.752 140.984L175.976 140.944L173.312 144.944L174.432 147.488C174.458 147.542 174.471 147.601 174.471 147.66C174.471 147.72 174.458 147.778 174.432 147.832C174.195 148.677 174.04 149.542 173.968 150.416C173.961 150.513 173.918 150.604 173.848 150.672L172.168 152.272L173.128 156.992L175.304 157.84C175.401 157.88 175.481 157.954 175.528 158.048C175.941 158.841 176.434 159.589 177 160.28C177.06 160.352 177.091 160.443 177.088 160.536V163.32L181.088 165.976L183.632 164.856C183.674 164.829 183.72 164.81 183.768 164.8ZM187.696 162.208C185.77 162.206 183.881 161.683 182.229 160.693C180.578 159.704 179.225 158.285 178.315 156.588C177.405 154.891 176.971 152.979 177.061 151.056C177.151 149.132 177.76 147.269 178.824 145.664C179.842 144.124 181.242 142.875 182.887 142.038C184.532 141.202 186.366 140.807 188.21 140.891C190.053 140.976 191.844 141.538 193.405 142.522C194.967 143.505 196.246 144.878 197.118 146.504C197.991 148.131 198.426 149.956 198.381 151.801C198.337 153.646 197.814 155.448 196.865 157.031C195.915 158.613 194.571 159.922 192.964 160.83C191.357 161.737 189.542 162.212 187.696 162.208ZM179.496 146.104C178.419 147.729 177.848 149.636 177.856 151.585C177.863 153.534 178.448 155.438 179.536 157.054C180.625 158.671 182.169 159.929 183.972 160.668C185.776 161.408 187.758 161.596 189.668 161.209C191.579 160.822 193.331 159.877 194.705 158.494C196.078 157.111 197.011 155.352 197.385 153.439C197.758 151.526 197.556 149.545 196.805 147.747C196.053 145.948 194.784 144.414 193.16 143.336C192.083 142.615 190.874 142.115 189.602 141.863C188.33 141.612 187.022 141.616 185.751 141.873C184.481 142.13 183.274 142.637 182.201 143.363C181.127 144.089 180.208 145.021 179.496 146.104Z" fill="white"/>
<path d="M340.664 185.32L328.104 183.624L336.408 121.376L312.184 118.112L253.424 172.208L250.336 195.352L300.968 202.184L298.44 221.12L322.664 224.384L325.192 205.456L337.752 207.152L340.664 185.32ZM277.128 176.744L308.136 148.48L303.88 180.352L277.128 176.744Z" fill="#8E99B2"/>
<path d="M315.304 223.792H315.2C315.096 223.773 315.004 223.713 314.944 223.626C314.884 223.539 314.861 223.432 314.88 223.328L333.6 120.976C333.621 120.873 333.681 120.783 333.768 120.723C333.854 120.663 333.96 120.639 334.064 120.656C334.168 120.675 334.26 120.735 334.319 120.822C334.379 120.909 334.403 121.016 334.384 121.12L315.704 223.464C315.685 223.556 315.635 223.64 315.562 223.7C315.49 223.759 315.398 223.792 315.304 223.792Z" fill="#263238"/>
<path d="M331.864 122.696C331.857 122.87 331.782 123.034 331.655 123.153C331.527 123.271 331.358 123.334 331.184 123.328C331.01 123.322 330.845 123.246 330.727 123.119C330.608 122.991 330.545 122.822 330.552 122.648C330.558 122.474 330.633 122.31 330.761 122.191C330.888 122.073 331.058 122.01 331.232 122.016C331.406 122.022 331.57 122.098 331.689 122.225C331.807 122.353 331.87 122.522 331.864 122.696Z" fill="#263238"/>
<path d="M329.2 136.536C329.195 136.666 329.152 136.791 329.076 136.896C329 137.001 328.894 137.081 328.773 137.126C328.651 137.172 328.519 137.18 328.393 137.15C328.266 137.12 328.152 137.053 328.064 136.958C327.975 136.863 327.917 136.744 327.897 136.616C327.876 136.488 327.894 136.357 327.948 136.239C328.002 136.121 328.089 136.021 328.2 135.953C328.31 135.885 328.438 135.851 328.568 135.856C328.654 135.859 328.739 135.879 328.817 135.915C328.895 135.951 328.966 136.002 329.025 136.065C329.083 136.128 329.129 136.202 329.159 136.283C329.189 136.364 329.203 136.45 329.2 136.536Z" fill="#263238"/>
<path d="M326.536 150.4C326.533 150.486 326.513 150.571 326.477 150.649C326.441 150.728 326.39 150.798 326.327 150.857C326.264 150.916 326.19 150.961 326.109 150.991C326.028 151.021 325.942 151.035 325.856 151.032C325.77 151.03 325.686 151.011 325.607 150.976C325.529 150.941 325.458 150.891 325.4 150.828C325.341 150.766 325.295 150.692 325.265 150.612C325.235 150.531 325.221 150.446 325.224 150.36C325.226 150.273 325.245 150.188 325.281 150.108C325.316 150.029 325.367 149.957 325.43 149.898C325.494 149.838 325.568 149.792 325.649 149.761C325.731 149.731 325.817 149.717 325.904 149.72C326.077 149.728 326.241 149.804 326.359 149.931C326.477 150.058 326.54 150.227 326.536 150.4Z" fill="#263238"/>
<path d="M321.288 164.8C321.27 164.96 321.194 165.109 321.074 165.216C320.953 165.324 320.797 165.384 320.636 165.384C320.475 165.384 320.319 165.324 320.198 165.216C320.078 165.109 320.002 164.96 319.984 164.8C319.974 164.708 319.983 164.616 320.011 164.528C320.039 164.44 320.086 164.359 320.147 164.29C320.209 164.221 320.284 164.166 320.368 164.129C320.453 164.091 320.544 164.072 320.636 164.072C320.728 164.072 320.819 164.091 320.904 164.129C320.988 164.166 321.063 164.221 321.125 164.29C321.186 164.359 321.233 164.44 321.261 164.528C321.289 164.616 321.298 164.708 321.288 164.8Z" fill="#263238"/>
<path d="M321.2 178.056C321.198 178.143 321.178 178.228 321.143 178.307C321.107 178.386 321.056 178.457 320.993 178.515C320.93 178.574 320.855 178.62 320.774 178.65C320.693 178.679 320.606 178.692 320.52 178.688C320.39 178.683 320.265 178.64 320.16 178.564C320.055 178.488 319.974 178.383 319.929 178.261C319.884 178.139 319.876 178.007 319.906 177.881C319.936 177.755 320.003 177.64 320.098 177.552C320.193 177.464 320.312 177.405 320.44 177.385C320.568 177.364 320.699 177.382 320.817 177.436C320.935 177.49 321.034 177.578 321.102 177.688C321.171 177.798 321.204 177.926 321.2 178.056Z" fill="#263238"/>
<path d="M318.536 191.896C318.533 192.026 318.491 192.152 318.416 192.258C318.341 192.365 318.236 192.446 318.114 192.492C317.993 192.539 317.86 192.548 317.733 192.519C317.607 192.49 317.491 192.424 317.402 192.329C317.313 192.234 317.254 192.115 317.233 191.987C317.212 191.859 317.229 191.727 317.283 191.608C317.337 191.49 317.424 191.39 317.535 191.322C317.645 191.253 317.774 191.219 317.904 191.224C318.077 191.23 318.24 191.304 318.358 191.43C318.476 191.556 318.54 191.723 318.536 191.896Z" fill="#263238"/>
<path d="M315.872 205.736C315.866 205.911 315.791 206.076 315.664 206.196C315.536 206.316 315.367 206.38 315.192 206.376C315.106 206.373 315.021 206.353 314.943 206.317C314.864 206.281 314.794 206.23 314.735 206.167C314.676 206.104 314.631 206.03 314.601 205.949C314.571 205.868 314.557 205.782 314.56 205.696C314.563 205.61 314.582 205.525 314.618 205.446C314.653 205.368 314.704 205.297 314.766 205.238C314.829 205.179 314.903 205.133 314.983 205.102C315.064 205.072 315.15 205.057 315.236 205.06C315.322 205.063 315.407 205.082 315.486 205.118C315.564 205.153 315.635 205.203 315.694 205.266C315.753 205.329 315.799 205.403 315.83 205.483C315.86 205.564 315.875 205.65 315.872 205.736Z" fill="#263238"/>
<path d="M313.2 219.584C313.195 219.714 313.152 219.839 313.076 219.944C313 220.049 312.894 220.129 312.773 220.175C312.651 220.22 312.519 220.228 312.393 220.198C312.266 220.168 312.152 220.101 312.064 220.006C311.975 219.911 311.917 219.792 311.897 219.664C311.876 219.536 311.894 219.405 311.948 219.287C312.002 219.169 312.089 219.07 312.2 219.001C312.31 218.933 312.438 218.899 312.568 218.904C312.654 218.906 312.739 218.925 312.818 218.961C312.897 218.996 312.968 219.047 313.027 219.111C313.086 219.174 313.132 219.249 313.161 219.33C313.191 219.411 313.204 219.498 313.2 219.584Z" fill="#263238"/>
<path d="M320.632 165.16C320.542 165.16 320.454 165.129 320.384 165.072C320.314 165.015 320.266 164.936 320.248 164.848C320.236 164.797 320.235 164.743 320.244 164.691C320.252 164.639 320.272 164.589 320.3 164.545C320.328 164.5 320.365 164.461 320.408 164.431C320.451 164.401 320.5 164.379 320.552 164.368L322.536 163.944C322.588 163.932 322.642 163.931 322.694 163.941C322.747 163.95 322.797 163.97 322.842 163.999C322.886 164.028 322.925 164.066 322.955 164.11C322.985 164.154 323.005 164.204 323.016 164.256C323.026 164.307 323.027 164.361 323.017 164.412C323.007 164.464 322.987 164.513 322.958 164.557C322.929 164.6 322.891 164.638 322.848 164.668C322.804 164.697 322.755 164.718 322.704 164.728L320.72 165.152L320.632 165.16Z" fill="#263238"/>
<path d="M327.264 157.792C326.32 160.24 325.519 162.74 324.864 165.28C324.264 168.104 324.232 174.424 324.232 174.424" fill="#263238"/>
<path d="M324.232 174.824C324.126 174.82 324.025 174.775 323.951 174.7C323.877 174.624 323.834 174.522 323.832 174.416C323.832 174.16 323.88 168.016 324.48 165.2C325.131 162.638 325.933 160.116 326.88 157.648C326.896 157.595 326.923 157.547 326.958 157.505C326.994 157.463 327.038 157.429 327.088 157.405C327.137 157.381 327.191 157.367 327.246 157.365C327.301 157.362 327.356 157.371 327.407 157.391C327.458 157.411 327.505 157.441 327.544 157.48C327.583 157.519 327.614 157.565 327.634 157.616C327.655 157.667 327.664 157.722 327.663 157.777C327.661 157.832 327.648 157.886 327.624 157.936C326.681 160.365 325.88 162.846 325.224 165.368C324.64 168.12 324.6 174.36 324.592 174.424C324.593 174.524 324.556 174.62 324.489 174.694C324.423 174.768 324.331 174.814 324.232 174.824Z" fill="#263238"/>
<path d="M177.96 243.872C179.072 225.952 177.032 193.368 210.72 197.688C246.824 202.304 236.496 244.528 236.496 244.528L177.96 243.872Z" fill="#263238"/>
<path d="M201.208 233.104C209.329 233.104 215.912 226.521 215.912 218.4C215.912 210.279 209.329 203.696 201.208 203.696C193.087 203.696 186.504 210.279 186.504 218.4C186.504 226.521 193.087 233.104 201.208 233.104Z" fill="white"/>
<path d="M203.144 203.72C196.176 202.536 188.744 207.664 188 212.864L215.608 215.408C214.632 209.48 208.664 204.664 203.144 203.72Z" fill="#263238"/>
<path d="M212.464 218.032C212.264 221.88 210.168 224.896 207.784 224.768C205.4 224.64 203.624 221.432 203.784 217.568C203.944 213.704 206.08 210.704 208.464 210.832C210.848 210.96 212.656 214.192 212.464 218.032Z" fill="#263238"/>
<path d="M201.208 233.904C198.142 233.904 195.144 232.995 192.595 231.291C190.045 229.588 188.058 227.166 186.884 224.333C185.711 221.5 185.404 218.383 186.002 215.375C186.6 212.368 188.077 209.605 190.245 207.437C192.413 205.269 195.176 203.792 198.183 203.194C201.191 202.596 204.308 202.903 207.141 204.076C209.974 205.25 212.396 207.237 214.099 209.786C215.803 212.336 216.712 215.334 216.712 218.4C216.708 222.511 215.073 226.452 212.166 229.358C209.26 232.265 205.319 233.9 201.208 233.904ZM201.208 204.504C198.458 204.504 195.769 205.32 193.483 206.848C191.196 208.376 189.414 210.548 188.362 213.089C187.31 215.63 187.035 218.426 187.572 221.123C188.109 223.821 189.434 226.298 191.379 228.242C193.325 230.187 195.803 231.51 198.5 232.046C201.198 232.581 203.994 232.305 206.534 231.251C209.075 230.198 211.246 228.414 212.773 226.127C214.3 223.839 215.114 221.15 215.112 218.4C215.108 214.714 213.641 211.181 211.035 208.576C208.428 205.971 204.894 204.506 201.208 204.504Z" fill="#8E99B2"/>
<path opacity="0.3" d="M232.392 243.424H232.296C232.244 243.413 232.196 243.391 232.153 243.361C232.11 243.33 232.074 243.292 232.046 243.247C232.018 243.202 232 243.152 231.992 243.1C231.984 243.048 231.987 242.995 232 242.944C232 242.84 234.576 231.992 231.928 221.024C231.902 220.918 231.92 220.806 231.977 220.713C232.034 220.62 232.126 220.553 232.232 220.528C232.338 220.503 232.45 220.52 232.543 220.577C232.636 220.634 232.702 220.726 232.728 220.832C235.424 232.032 232.824 243.024 232.8 243.128C232.776 243.217 232.723 243.294 232.648 243.348C232.574 243.402 232.483 243.429 232.392 243.424Z" fill="white"/>
<path opacity="0.3" d="M230.16 215.008C230.083 215.007 230.008 214.985 229.943 214.944C229.878 214.903 229.826 214.845 229.792 214.776C228.798 212.578 227.523 210.518 226 208.648C225.933 208.566 225.902 208.461 225.913 208.356C225.923 208.252 225.975 208.155 226.056 208.088C226.097 208.054 226.144 208.028 226.194 208.013C226.245 207.997 226.299 207.992 226.352 207.997C226.404 208.002 226.456 208.018 226.502 208.043C226.549 208.068 226.59 208.103 226.624 208.144C228.185 210.069 229.494 212.184 230.52 214.44C230.543 214.487 230.556 214.538 230.558 214.591C230.561 214.643 230.553 214.695 230.535 214.745C230.517 214.794 230.49 214.839 230.454 214.877C230.418 214.916 230.376 214.946 230.328 214.968C230.275 214.992 230.218 215.006 230.16 215.008Z" fill="white"/>
<path d="M102.984 327.936H102.688C101.627 327.906 100.621 327.456 99.8923 326.685C99.1631 325.914 98.7702 324.885 98.7999 323.824C98.8296 322.763 99.2795 321.757 100.051 321.028C100.822 320.299 101.851 319.906 102.912 319.936H102.984C105.296 319.936 110.856 317.128 122.488 298.792C122.797 298.305 123.207 297.891 123.691 297.577C124.175 297.263 124.721 297.058 125.292 296.975C125.862 296.893 126.444 296.934 126.997 297.097C127.55 297.26 128.061 297.541 128.496 297.92C137.631 305.773 147.593 312.608 158.208 318.304C158.699 318.527 159.14 318.848 159.504 319.246C159.868 319.644 160.148 320.112 160.327 320.622C160.505 321.131 160.579 321.671 160.543 322.209C160.507 322.748 160.363 323.273 160.119 323.755C159.875 324.236 159.536 324.663 159.123 325.01C158.709 325.356 158.23 325.616 157.713 325.773C157.197 325.929 156.654 325.98 156.118 325.921C155.581 325.863 155.062 325.696 154.592 325.432C144.727 320.19 135.402 313.989 126.752 306.92C117 321.6 109.768 327.936 102.984 327.936Z" fill="#263238"/>
<path d="M127.736 297.2H127.392C126.763 297.109 126.196 296.772 125.815 296.264C125.434 295.756 125.271 295.117 125.36 294.488C125.928 290.488 125.224 275.584 120.176 263.984C119.952 263.471 119.914 262.897 120.069 262.359C120.224 261.822 120.561 261.355 121.024 261.04C131.984 253.576 155.328 252.68 156.32 252.648C156.635 252.637 156.949 252.689 157.244 252.8C157.539 252.911 157.81 253.079 158.04 253.294C158.271 253.51 158.456 253.768 158.586 254.056C158.717 254.343 158.789 254.653 158.8 254.968C158.81 255.283 158.759 255.597 158.648 255.893C158.537 256.188 158.369 256.458 158.153 256.688C157.938 256.919 157.679 257.104 157.392 257.235C157.105 257.365 156.795 257.437 156.48 257.448C156.264 257.448 135.856 258.248 125.376 264.008C129.84 275.56 130.856 289.952 130.112 295.16C130.026 295.728 129.738 296.247 129.302 296.621C128.866 296.995 128.31 297.201 127.736 297.2Z" fill="#263238"/>
<path d="M131.768 294.096C130.168 290.328 122.968 290.752 118.752 293.984C116.496 295.704 113.44 300.896 113.152 302.784C113.056 303.233 113.07 303.698 113.194 304.14C113.318 304.581 113.547 304.987 113.861 305.32C114.176 305.654 114.567 305.906 115.001 306.055C115.435 306.204 115.899 306.246 116.352 306.176C119.112 305.936 122.896 301.928 122.896 301.928C120.376 304.4 123.632 306.144 128.496 302.568C131.152 300.576 133.552 298.312 131.768 294.096Z" fill="#8E99B2"/>
<path d="M269.368 244.928C269.331 244.936 269.293 244.936 269.256 244.928C269.205 244.914 269.157 244.89 269.116 244.858C269.074 244.825 269.04 244.784 269.014 244.738C268.989 244.692 268.973 244.641 268.968 244.588C268.963 244.535 268.968 244.482 268.984 244.432C270.048 240.72 271.208 238.456 272.736 237.232C272.496 236.372 272.541 235.457 272.864 234.624C273.237 233.652 273.895 232.815 274.752 232.224C274.519 231.972 274.353 231.666 274.271 231.333C274.188 231 274.191 230.651 274.28 230.32C274.57 229.318 275.169 228.433 275.992 227.792C275.695 227.46 275.532 227.029 275.536 226.584C275.536 224.184 279.944 220.568 284.944 219.88C285.05 219.865 285.158 219.893 285.243 219.958C285.329 220.022 285.385 220.118 285.4 220.224C285.415 220.33 285.387 220.438 285.322 220.523C285.258 220.609 285.162 220.665 285.056 220.68C280.304 221.328 276.32 224.768 276.336 226.584C276.334 226.855 276.437 227.116 276.624 227.312C277.7 226.582 278.911 226.074 280.185 225.817C281.46 225.56 282.773 225.56 284.048 225.816C286.504 226.288 287.504 226.808 287.392 227.552C287.168 228.952 281.944 229.248 278.44 228.832C277.812 228.775 277.201 228.598 276.64 228.312C275.885 228.849 275.324 229.615 275.04 230.496C274.971 230.729 274.972 230.977 275.041 231.21C275.111 231.443 275.247 231.651 275.432 231.808C276.92 231.008 279.008 230.72 281.768 231.328C285.392 232.128 285.528 232.568 285.616 232.832C285.644 232.925 285.646 233.024 285.622 233.119C285.598 233.213 285.549 233.299 285.48 233.368C284.72 234.168 279.16 233.792 276.368 233.104C276.031 233.027 275.705 232.906 275.4 232.744C274.573 233.246 273.937 234.009 273.592 234.912C273.361 235.496 273.297 236.133 273.408 236.752C273.55 236.667 273.697 236.589 273.848 236.52C275.504 235.72 277.504 235.864 279.976 236.92C281.576 237.616 282.376 238.24 282.456 238.872C282.459 239.034 282.419 239.194 282.338 239.335C282.258 239.476 282.141 239.592 282 239.672C280.776 240.472 276.504 240.36 274.28 239.176C273.768 238.898 273.342 238.486 273.048 237.984C271.744 239.184 270.688 241.32 269.728 244.672C269.699 244.745 269.649 244.808 269.585 244.853C269.522 244.898 269.446 244.924 269.368 244.928ZM273.704 237.464C273.927 237.878 274.266 238.217 274.68 238.44C276.488 239.4 280.04 239.616 281.368 239.08C281.64 238.968 281.68 238.88 281.68 238.88C281.68 238.88 281.64 238.432 279.68 237.592C277.44 236.632 275.68 236.496 274.216 237.176C274.039 237.261 273.868 237.357 273.704 237.464ZM276.376 232.208L276.576 232.264C279.181 232.864 281.862 233.067 284.528 232.864C283.582 232.513 282.608 232.246 281.616 232.064C279.893 231.597 278.071 231.647 276.376 232.208ZM277.384 227.712C277.753 227.844 278.137 227.93 278.528 227.968C282.528 228.44 286.04 227.888 286.528 227.384C286.392 227.264 285.856 226.92 283.872 226.544C281.639 226.099 279.321 226.516 277.384 227.712Z" fill="#263238"/>
<path d="M165.224 326.6C165.752 326.432 165.576 325.92 164.984 325.92H154.152C133.528 323.736 119.12 326.664 128.2 327.352C137.28 328.04 127.56 327.896 120.928 330.408C114.296 332.92 170.248 333.552 175.328 330.408C180 327.512 157.912 328.944 165.224 326.6Z" fill="#263238"/>
<path d="M242.776 329.792L148.536 326.664L144.624 235.288L255.912 237.776L242.776 329.792Z" fill="#8E99B2"/>
<path d="M177.96 328.04C177.859 328.04 177.762 328.003 177.688 327.934C177.614 327.866 177.568 327.772 177.56 327.672L170.008 235.896C170.001 235.79 170.036 235.686 170.105 235.606C170.173 235.525 170.271 235.474 170.376 235.464C170.481 235.459 170.584 235.495 170.665 235.563C170.745 235.631 170.796 235.727 170.808 235.832L178.4 327.608C178.405 327.661 178.398 327.713 178.382 327.764C178.366 327.814 178.34 327.86 178.306 327.901C178.272 327.941 178.23 327.974 178.183 327.998C178.136 328.022 178.085 328.036 178.032 328.04H177.96Z" fill="#263238"/>
<path d="M242.776 329.792L268.104 325.936L276.08 240.968L255.912 237.776L242.776 329.792Z" fill="#8E99B2"/>
<path opacity="0.2" d="M242.776 329.792L268.104 325.936L276.08 240.968L255.912 237.776L242.776 329.792Z" fill="black"/>
<path d="M156.584 309.056L154.264 254.76C154.207 253.419 154.425 252.08 154.906 250.826C155.387 249.573 156.119 248.431 157.059 247.472C157.999 246.513 159.125 245.757 160.368 245.251C161.612 244.744 162.946 244.498 164.288 244.528L234.736 246.128C236.123 246.159 237.488 246.484 238.74 247.082C239.993 247.679 241.104 248.535 242.001 249.594C242.899 250.652 243.561 251.888 243.946 253.222C244.33 254.555 244.428 255.954 244.232 257.328L236.424 312C236.086 314.395 234.876 316.58 233.026 318.138C231.177 319.695 228.817 320.515 226.4 320.44L166.088 318.44C163.612 318.364 161.256 317.354 159.494 315.614C157.731 313.873 156.692 311.531 156.584 309.056Z" fill="#263238"/>
<path d="M164.2 261.192L175.096 261.536L175.008 264.344L168.184 264.128L168.12 266.224L174.448 266.424L174.36 269.112L168.032 268.904L167.952 271.504L174.968 271.728L174.872 274.704L163.776 274.352L164.2 261.192Z" fill="white"/>
<path d="M177.12 274.776L177.536 261.616L184.32 261.832C185.293 261.827 186.261 261.967 187.192 262.248C187.852 262.469 188.417 262.909 188.792 263.496C189.07 263.923 189.257 264.403 189.342 264.906C189.426 265.408 189.406 265.923 189.283 266.417C189.16 266.912 188.937 267.376 188.626 267.78C188.316 268.185 187.926 268.521 187.48 268.768C187.025 269.002 186.537 269.164 186.032 269.248C186.404 269.368 186.757 269.54 187.08 269.76C187.314 269.977 187.523 270.218 187.704 270.48C187.91 270.729 188.092 270.997 188.248 271.28L190.096 275.16L185.504 275.008L183.456 270.92C183.294 270.53 183.054 270.176 182.752 269.88C182.465 269.672 182.122 269.555 181.768 269.544H181.408L181.24 274.88L177.12 274.776ZM181.456 267.08L183.168 267.136C183.532 267.114 183.893 267.063 184.248 266.984C184.516 266.943 184.759 266.803 184.928 266.592C185.101 266.379 185.2 266.115 185.208 265.84C185.223 265.657 185.197 265.473 185.132 265.301C185.067 265.13 184.965 264.975 184.832 264.848C184.386 264.56 183.859 264.422 183.328 264.456L181.536 264.4L181.456 267.08Z" fill="white"/>
<path d="M191.424 275.2L191.84 262.04L198.616 262.256C199.589 262.25 200.557 262.391 201.488 262.672C202.149 262.891 202.715 263.332 203.088 263.92C203.494 264.561 203.684 265.315 203.632 266.072C203.634 266.71 203.464 267.338 203.138 267.887C202.813 268.436 202.345 268.887 201.784 269.192C201.328 269.425 200.84 269.587 200.336 269.672C200.706 269.791 201.056 269.964 201.376 270.184C201.615 270.394 201.827 270.634 202.008 270.896C202.212 271.146 202.394 271.414 202.552 271.696L204.4 275.568L199.808 275.424L197.76 271.336C197.596 270.946 197.357 270.593 197.056 270.296C196.77 270.08 196.422 269.962 196.064 269.96H195.712L195.536 275.304L191.424 275.2ZM195.752 267.504L197.472 267.552C197.836 267.538 198.197 267.49 198.552 267.408C198.818 267.368 199.058 267.228 199.224 267.016C199.403 266.806 199.502 266.54 199.504 266.264C199.521 266.082 199.497 265.898 199.433 265.726C199.37 265.554 199.268 265.399 199.136 265.272C198.69 264.976 198.157 264.838 197.624 264.88L195.84 264.824L195.752 267.504Z" fill="white"/>
<path d="M205.056 269.088C204.994 268.17 205.136 267.249 205.473 266.392C205.809 265.536 206.331 264.764 207.001 264.133C207.671 263.502 208.473 263.027 209.348 262.743C210.223 262.458 211.151 262.371 212.064 262.488C212.985 262.457 213.903 262.612 214.764 262.944C215.624 263.275 216.409 263.776 217.072 264.416C217.664 265.097 218.111 265.892 218.386 266.752C218.661 267.611 218.758 268.518 218.672 269.416C218.678 270.723 218.371 272.012 217.776 273.176C217.236 274.128 216.43 274.901 215.456 275.4C214.308 275.949 213.037 276.191 211.768 276.104C210.502 276.115 209.25 275.841 208.104 275.304C207.128 274.775 206.332 273.967 205.816 272.984C205.211 271.779 204.948 270.432 205.056 269.088ZM209.12 269.232C209 270.24 209.228 271.26 209.768 272.12C210.02 272.402 210.326 272.629 210.669 272.79C211.011 272.951 211.382 273.041 211.76 273.055C212.137 273.069 212.514 273.007 212.867 272.873C213.221 272.738 213.543 272.534 213.816 272.272C214.409 271.374 214.69 270.306 214.616 269.232C214.723 268.268 214.488 267.296 213.952 266.488C213.709 266.208 213.409 265.984 213.073 265.831C212.736 265.678 212.37 265.599 212 265.6C211.626 265.573 211.252 265.631 210.904 265.77C210.556 265.908 210.244 266.124 209.992 266.4C209.386 267.217 209.078 268.216 209.12 269.232Z" fill="white"/>
<path d="M220.728 276.168L221.144 263L227.92 263.216C228.892 263.214 229.86 263.355 230.792 263.632C231.45 263.856 232.014 264.296 232.392 264.88C232.796 265.522 232.986 266.275 232.936 267.032C232.94 267.672 232.77 268.301 232.444 268.851C232.119 269.402 231.65 269.855 231.088 270.16C230.631 270.386 230.143 270.545 229.64 270.632C230.01 270.754 230.361 270.929 230.68 271.152C230.919 271.362 231.131 271.602 231.312 271.864C231.518 272.113 231.7 272.381 231.856 272.664L233.704 276.544L229.112 276.4L227.064 272.304C226.901 271.916 226.662 271.565 226.36 271.272C226.073 271.057 225.726 270.937 225.368 270.928H225.016L224.84 276.272L220.728 276.168ZM225.056 268.464L226.776 268.52C227.14 268.506 227.501 268.458 227.856 268.376C228.121 268.333 228.361 268.194 228.528 267.984C228.717 267.761 228.817 267.476 228.808 267.184C228.825 267.003 228.801 266.82 228.737 266.65C228.674 266.479 228.572 266.325 228.44 266.2C227.994 265.904 227.462 265.766 226.928 265.808L225.144 265.752L225.056 268.464Z" fill="white"/>
<path d="M227.2 298.528C227.05 298.531 226.901 298.502 226.763 298.442C226.625 298.383 226.501 298.295 226.4 298.184L219.552 290.688L212.16 297.44C211.955 297.628 211.684 297.726 211.407 297.714C211.129 297.702 210.868 297.581 210.68 297.376L203.832 289.88L196.44 296.632C196.235 296.82 195.964 296.918 195.687 296.906C195.409 296.894 195.148 296.773 194.96 296.568L188.104 289.072L180.72 295.824C180.612 295.922 180.486 295.996 180.348 296.043C180.21 296.09 180.065 296.108 179.92 296.096C179.642 296.079 179.381 295.956 179.192 295.752L172.344 288.264L164.96 295.008C164.754 295.196 164.481 295.295 164.203 295.283C163.924 295.271 163.661 295.149 163.472 294.944C163.378 294.843 163.306 294.724 163.259 294.594C163.212 294.464 163.191 294.327 163.198 294.189C163.205 294.051 163.239 293.916 163.298 293.792C163.357 293.667 163.441 293.556 163.544 293.464L171.704 286C171.91 285.812 172.182 285.713 172.461 285.725C172.74 285.737 173.003 285.859 173.192 286.064L180.04 293.56L187.424 286.808C187.633 286.624 187.905 286.527 188.184 286.536C188.462 286.551 188.724 286.674 188.912 286.88L195.76 294.376L203.152 287.624C203.253 287.53 203.371 287.457 203.501 287.409C203.63 287.362 203.767 287.34 203.905 287.346C204.043 287.352 204.178 287.386 204.303 287.444C204.428 287.503 204.539 287.586 204.632 287.688L211.48 295.184L218.872 288.432C219.077 288.244 219.348 288.146 219.625 288.158C219.903 288.17 220.164 288.291 220.352 288.496L228 296.8C228.136 296.953 228.226 297.142 228.257 297.345C228.288 297.547 228.259 297.754 228.174 297.941C228.089 298.128 227.952 298.286 227.779 298.395C227.606 298.505 227.405 298.563 227.2 298.56V298.528Z" fill="white"/>
<path d="M100.6 331.736L95.5919 329.344L91.1279 307.608L93.5519 304.944L100.6 331.736Z" fill="#8E99B2"/>
<path d="M100.6 331.736L107.248 327.848L101.552 309.944L93.5518 304.944L100.6 331.736Z" fill="#8E99B2"/>
<path opacity="0.2" d="M100.6 331.736L107.248 327.848L101.552 309.944L93.5518 304.944L100.6 331.736Z" fill="black"/>
<path d="M209.6 335.688H209.048C207.987 335.659 206.981 335.21 206.251 334.44C205.521 333.67 205.127 332.641 205.156 331.58C205.184 330.519 205.633 329.513 206.404 328.783C207.174 328.053 208.203 327.659 209.264 327.688C215.424 327.888 228.464 324.104 235.92 316.872C236.37 316.43 236.918 316.101 237.52 315.912C250.152 312.12 254.848 319.776 255.04 320.104L248.16 324.176C248.184 324.227 248.213 324.275 248.248 324.32C248.176 324.216 246.384 321.92 240.688 323.328C231.336 331.856 216.984 335.688 209.6 335.688Z" fill="#263238"/>
<path d="M209.112 341L194.544 340.088L193.4 313.224L212.976 313.952L209.112 341Z" fill="#8E99B2"/>
<path d="M209.112 341L212.52 337.608L214.632 320.864L212.976 313.952L209.112 341Z" fill="#8E99B2"/>
<path opacity="0.2" d="M209.112 341L212.52 337.608L214.632 320.864L212.976 313.952L209.112 341Z" fill="black"/>
<path d="M293.528 330.832C293.005 330.831 292.497 330.66 292.08 330.344C283.76 324.024 272.52 312.8 268.208 301.976C268.143 301.819 268.098 301.656 268.072 301.488C265.968 288.976 263.96 262.648 263.872 261.536C263.848 261.221 263.887 260.904 263.986 260.604C264.085 260.304 264.241 260.026 264.448 259.786C264.864 259.302 265.455 259.004 266.092 258.956C266.728 258.908 267.358 259.115 267.842 259.532C268.326 259.948 268.624 260.539 268.672 261.176C268.672 261.44 270.728 288.024 272.776 300.432C277.08 310.96 288.776 321.768 295 326.52C295.401 326.824 295.696 327.246 295.844 327.727C295.991 328.208 295.984 328.723 295.823 329.2C295.662 329.676 295.356 330.09 294.947 330.383C294.538 330.676 294.047 330.833 293.544 330.832H293.528Z" fill="#263238"/>
<path d="M304.624 332.04C302.768 332.04 300.664 331.2 298.368 329.544C297.852 329.171 297.506 328.608 297.406 327.979C297.305 327.35 297.458 326.708 297.832 326.192C298.205 325.676 298.768 325.33 299.397 325.23C300.025 325.129 300.668 325.283 301.184 325.656C303.168 327.088 304.248 327.256 304.624 327.256C305.26 327.256 305.871 327.509 306.321 327.959C306.771 328.409 307.024 329.019 307.024 329.656C307.024 330.293 306.771 330.903 306.321 331.353C305.871 331.803 305.26 332.056 304.624 332.056V332.04Z" fill="#263238"/>
<path d="M299.04 329.472C301.608 321.848 312.136 323.352 315.768 324.488C318.871 325.389 321.846 326.679 324.624 328.328C326.584 329.608 326.616 331.76 324 332.984C320.8 334.488 312.672 333.152 312.672 333.152C316.864 334.984 312.672 337.952 305.304 335.04C302.912 334.096 298.136 332.272 299.04 329.472Z" fill="#8E99B2"/>
<path d="M273.488 264.8C272.536 271.28 267.168 276.056 262.8 275.416C258.432 274.776 258.256 269.016 259.208 262.504C260.16 255.992 261.888 251.304 266.256 251.944C270.624 252.584 274.44 258.344 273.488 264.8Z" fill="#263238"/>
<path d="M167.904 238.96C168.266 238.96 168.56 238.666 168.56 238.304C168.56 237.942 168.266 237.648 167.904 237.648C167.542 237.648 167.248 237.942 167.248 238.304C167.248 238.666 167.542 238.96 167.904 238.96Z" fill="#263238"/>
<path d="M174.568 243.024C174.568 243.154 174.529 243.281 174.457 243.388C174.385 243.496 174.283 243.58 174.163 243.63C174.043 243.68 173.911 243.693 173.784 243.667C173.657 243.642 173.54 243.58 173.448 243.488C173.356 243.396 173.294 243.279 173.268 243.152C173.243 243.025 173.256 242.893 173.306 242.773C173.355 242.653 173.44 242.551 173.547 242.479C173.655 242.406 173.782 242.368 173.912 242.368C174.086 242.368 174.253 242.437 174.376 242.56C174.499 242.683 174.568 242.85 174.568 243.024Z" fill="#263238"/>
<path d="M175.304 320.544C175.304 320.674 175.265 320.801 175.193 320.908C175.121 321.016 175.019 321.1 174.899 321.15C174.779 321.2 174.647 321.213 174.52 321.187C174.392 321.162 174.276 321.1 174.184 321.008C174.092 320.916 174.03 320.799 174.004 320.672C173.979 320.545 173.992 320.413 174.042 320.293C174.091 320.173 174.175 320.071 174.283 319.999C174.391 319.926 174.518 319.888 174.648 319.888C174.822 319.888 174.989 319.957 175.112 320.08C175.235 320.203 175.304 320.37 175.304 320.544Z" fill="#263238"/>
<path d="M181.312 325.272C181.312 325.402 181.274 325.529 181.201 325.636C181.129 325.744 181.027 325.828 180.907 325.878C180.787 325.928 180.655 325.941 180.528 325.915C180.401 325.89 180.284 325.828 180.192 325.736C180.1 325.644 180.038 325.527 180.013 325.4C179.987 325.273 180 325.141 180.05 325.021C180.1 324.901 180.184 324.799 180.292 324.727C180.399 324.654 180.526 324.616 180.656 324.616C180.83 324.616 180.997 324.685 181.12 324.808C181.243 324.931 181.312 325.098 181.312 325.272Z" fill="#263238"/>
<path d="M66.0079 333.136C64.8562 333.082 63.7313 332.77 62.7163 332.223C61.7013 331.676 60.8222 330.908 60.1439 329.976C60.1107 329.933 60.0865 329.884 60.0729 329.831C60.0592 329.779 60.0565 329.724 60.0647 329.67C60.0729 329.617 60.0919 329.565 60.1207 329.519C60.1494 329.473 60.1872 329.433 60.2318 329.403C60.2763 329.372 60.3267 329.35 60.3799 329.339C60.4331 329.328 60.4879 329.328 60.5411 329.339C60.5942 329.35 60.6446 329.372 60.6891 329.403C60.7336 329.434 60.7713 329.474 60.7999 329.52C62.2959 331.68 65.5999 332.824 67.0399 332.144C67.1841 332.083 67.3127 331.99 67.4159 331.872C66.6883 331.552 66.0508 331.057 65.5596 330.432C65.0685 329.807 64.7389 329.071 64.5999 328.288C64.4159 327.272 64.2719 325.888 65.1039 325.712C66.2559 325.456 67.7599 328.232 68.3039 330.336C68.4025 330.684 68.4377 331.047 68.4079 331.408C68.8693 331.546 69.3547 331.584 69.8319 331.52C70.047 331.503 70.2562 331.442 70.4463 331.34C70.6364 331.238 70.8031 331.098 70.9359 330.928C70.4094 330.531 69.9727 330.027 69.6542 329.449C69.3358 328.872 69.1428 328.233 69.0879 327.576C68.7839 325.384 69.0159 325.008 69.2559 324.816C69.3337 324.756 69.4265 324.72 69.524 324.71C69.6215 324.7 69.7198 324.717 69.8079 324.76C70.6639 325.12 71.6959 328.224 71.8959 329.984C71.9199 330.167 71.9199 330.353 71.8959 330.536C72.2408 330.669 72.6065 330.739 72.9759 330.744C73.6543 330.77 74.3252 330.595 74.9039 330.24C74.7919 330.168 74.6879 330.088 74.5839 330.008C73.7839 329.296 73.4159 328.16 73.5599 326.544C73.6719 325.288 73.9519 324.6 74.4559 324.384C74.6185 324.319 74.7966 324.302 74.9684 324.336C75.1403 324.37 75.2985 324.454 75.4239 324.576C75.964 325.172 76.3675 325.879 76.6065 326.647C76.8456 327.416 76.9143 328.227 76.8079 329.024C76.7385 329.356 76.5994 329.67 76.3999 329.944C77.8719 330.2 79.9359 329.784 81.7199 329.344C81.7725 329.331 81.827 329.329 81.8803 329.338C81.9337 329.346 81.9848 329.365 82.0309 329.393C82.0769 329.422 82.117 329.459 82.1487 329.502C82.1805 329.546 82.2033 329.595 82.2159 329.648C82.2285 329.701 82.2307 329.755 82.2222 329.808C82.2138 329.862 82.1949 329.913 82.1666 329.959C82.1384 330.005 82.1014 330.045 82.0577 330.077C82.014 330.109 81.9645 330.131 81.9119 330.144C79.7439 330.68 77.4079 331.12 75.7599 330.64C74.9555 331.252 73.9704 331.578 72.9599 331.568C72.5115 331.562 72.0675 331.478 71.6479 331.32C71.4618 331.608 71.2121 331.849 70.9181 332.025C70.624 332.201 70.2935 332.308 69.9519 332.336C69.3506 332.413 68.7397 332.362 68.1599 332.184C67.9733 332.498 67.6938 332.747 67.3599 332.896C66.9308 333.069 66.4704 333.151 66.0079 333.136ZM65.3199 326.512C65.2093 327.056 65.2312 327.618 65.3839 328.152C65.4968 328.792 65.7622 329.395 66.1577 329.91C66.5532 330.425 67.0672 330.838 67.6559 331.112C67.6447 330.922 67.6125 330.735 67.5599 330.552C66.9359 328.264 65.7359 326.688 65.3199 326.512ZM69.7759 325.816C69.7811 326.368 69.8266 326.919 69.9119 327.464C70.0001 328.439 70.4309 329.352 71.1279 330.04C70.9311 328.563 70.4733 327.133 69.7759 325.816ZM74.8079 325.12C74.8079 325.12 74.5039 325.272 74.3919 326.608C74.2799 327.944 74.5119 328.864 75.1359 329.4C75.2836 329.52 75.4447 329.622 75.6159 329.704C75.8263 329.479 75.9751 329.203 76.0479 328.904C76.1904 327.645 75.8502 326.378 75.0959 325.36C74.9279 325.152 74.8319 325.12 74.8079 325.12Z" fill="#263238"/>
<path d="M183.096 339.184L185.264 335.424L183.096 331.664H180.776L182.088 335.424L180.776 339.184H183.096Z" fill="#263238"/>
<path d="M180.928 337.384C180.66 337.401 180.392 337.363 180.14 337.273C179.888 337.182 179.657 337.041 179.462 336.857C179.266 336.674 179.11 336.453 179.004 336.207C178.897 335.961 178.843 335.696 178.843 335.428C178.843 335.16 178.897 334.895 179.004 334.649C179.11 334.403 179.266 334.182 179.462 333.999C179.657 333.815 179.888 333.674 180.14 333.583C180.392 333.493 180.66 333.455 180.928 333.472L177.248 332.736L176.264 335.712L177.912 338.224L180.928 337.384Z" fill="#263238"/>
<path d="M181.248 331.664H176.904L174.736 335.424L176.904 339.184H181.248L183.416 335.424L181.248 331.664ZM179.08 337.384C178.692 337.386 178.312 337.272 177.989 337.058C177.665 336.843 177.413 336.538 177.263 336.18C177.114 335.822 177.074 335.427 177.149 335.047C177.223 334.666 177.409 334.316 177.683 334.041C177.957 333.766 178.306 333.579 178.687 333.502C179.067 333.426 179.461 333.464 179.82 333.612C180.179 333.761 180.485 334.012 180.701 334.334C180.917 334.657 181.032 335.036 181.032 335.424C181.032 335.942 180.826 336.44 180.461 336.807C180.095 337.174 179.598 337.382 179.08 337.384Z" fill="#8E99B2"/>
<path d="M334.312 331.408L332.704 328.616L334.312 325.824H336.032L335.064 328.616L336.032 331.408H334.312Z" fill="#8E99B2"/>
<path d="M335.92 330.072C336.12 330.087 336.32 330.06 336.509 329.994C336.698 329.928 336.872 329.823 337.018 329.687C337.165 329.551 337.282 329.386 337.362 329.202C337.442 329.018 337.484 328.82 337.484 328.62C337.484 328.42 337.442 328.222 337.362 328.038C337.282 327.854 337.165 327.689 337.018 327.553C336.872 327.417 336.698 327.312 336.509 327.246C336.32 327.18 336.12 327.153 335.92 327.168L338.656 326.624L339.384 328.832L338.168 330.696L335.92 330.072Z" fill="#8E99B2"/>
<path d="M335.688 325.824H338.888L340.488 328.616L338.888 331.408H335.688L334.088 328.616L335.688 325.824ZM337.288 330.072C337.576 330.074 337.858 329.99 338.099 329.831C338.339 329.672 338.527 329.445 338.639 329.179C338.75 328.913 338.78 328.62 338.725 328.337C338.67 328.054 338.532 327.794 338.328 327.589C338.125 327.385 337.866 327.245 337.583 327.189C337.3 327.132 337.007 327.16 336.741 327.27C336.474 327.38 336.246 327.567 336.086 327.806C335.925 328.046 335.84 328.328 335.84 328.616C335.839 328.807 335.876 328.997 335.949 329.174C336.021 329.352 336.129 329.513 336.264 329.648C336.399 329.783 336.56 329.891 336.737 329.963C336.915 330.036 337.104 330.073 337.296 330.072H337.288Z" fill="#263238"/>
<path d="M274.4 335.12H278.016C278.469 335.118 278.902 334.937 279.221 334.616C279.541 334.295 279.72 333.861 279.72 333.408C279.72 332.955 279.541 332.521 279.221 332.2C278.902 331.879 278.469 331.698 278.016 331.696H274.4C273.946 331.696 273.51 331.876 273.189 332.197C272.868 332.519 272.688 332.954 272.688 333.408C272.688 333.862 272.868 334.297 273.189 334.619C273.51 334.94 273.946 335.12 274.4 335.12Z" fill="#263238"/>
<path d="M268.584 331.888C268.919 331.278 269.426 330.779 270.042 330.453C270.658 330.128 271.355 329.989 272.048 330.055C272.742 330.121 273.401 330.389 273.944 330.824C274.487 331.26 274.891 331.846 275.105 332.508C275.32 333.171 275.335 333.882 275.151 334.554C274.966 335.225 274.589 335.828 274.065 336.288C273.542 336.747 272.896 337.044 272.206 337.14C271.516 337.237 270.813 337.13 270.184 336.832C269.319 336.386 268.665 335.616 268.365 334.69C268.065 333.764 268.144 332.756 268.584 331.888Z" fill="#8E99B2"/>
<path d="M269.559 336.831L270.551 337.298L273.996 329.99L273.005 329.522L269.559 336.831Z" fill="#263238"/>
</svg>
