<svg width="36" height="36" viewBox="0 0 36 36" fill="none" xmlns="http://www.w3.org/2000/svg">
<circle cx="18" cy="18" r="18" fill="#134C85"/>
<path d="M24.7386 20.809C24.5092 20.6831 24.7181 20.4731 24.7181 20.4731L25.5955 20.578L24.5173 20.0781C24.5544 20.0946 24.7185 20.1609 25.0103 20.1791C25.3447 20.2 25.6584 20.1372 25.6584 20.1372C25.6584 20.1372 25.3659 20.0322 25.1149 20.0322C24.8641 20.0322 24.8017 19.8224 24.8017 19.8224L25.6374 19.7594C25.6374 19.7594 25.5329 19.6124 24.8853 19.6335C24.2372 19.6543 24.3418 19.4024 24.3418 19.4024C24.3418 19.4024 24.5718 19.2765 24.7598 19.2136C24.9479 19.1506 25.0732 18.8777 25.0732 18.8777C25.0732 18.8777 24.7598 18.9617 24.4044 18.9617C24.0491 18.9617 24.0283 18.6677 24.0283 18.6677C24.0283 18.6677 24.2791 18.5837 24.467 18.3949C24.6552 18.2059 24.9896 18.3949 24.9896 18.3949C24.9896 18.3949 24.7807 18.2268 24.5718 18.1849C24.3627 18.1429 23.9864 18.1849 23.9864 18.1849L24.7386 17.8069C24.7386 17.8069 24.4463 17.87 24.2165 17.996C23.9864 18.1219 23.7775 17.954 23.7775 17.954L24.0283 17.6811C24.0283 17.6811 23.527 17.6391 23.255 17.6811C22.9835 17.7231 22.6491 17.8281 22.9208 17.66C23.1924 17.4921 23.4851 16.7994 23.4851 16.7994C23.4851 16.7994 23.2762 17.0722 23.0044 17.3032C22.7327 17.5341 22.3564 17.408 22.3564 17.408C22.3564 17.408 22.5865 17.0514 22.7536 16.7574C22.9208 16.4635 22.6284 16.2746 22.6284 16.2746C22.6284 16.2746 22.4402 16.7155 22.2101 17.0303C21.9803 17.3452 21.7714 16.9673 21.7714 16.9673C21.7714 16.9673 21.855 16.6943 21.9803 16.5685C22.1058 16.4424 22.3985 16.3374 22.3985 16.3374C22.3985 16.3374 22.0849 16.3374 21.8758 16.4006C21.6669 16.4635 21.4997 16.7365 21.4997 16.7365C21.4997 16.7365 21.7086 15.8968 21.6252 16.1696C21.5416 16.4424 21.0403 16.5476 21.0403 16.5476C21.0403 16.5476 21.1236 15.8548 21.0607 16.0646C20.9983 16.2746 20.4968 16.3796 20.622 16.0226C20.7475 15.6659 20.622 15.2249 20.622 15.2249C20.622 15.2249 20.5177 15.4348 20.204 15.7077C19.8906 15.9806 19.7446 15.8548 19.6608 15.6659C19.5774 15.4768 19.2013 14.994 19.2218 15.1829C19.243 15.3718 18.9713 15.8968 18.9086 15.7707C18.8458 15.6448 18.4906 15.3719 18.5323 15.5818C18.5631 15.7359 18.4604 16.0333 18.4036 16.1809C18.3018 15.5773 18.2482 14.9428 18.2482 14.4448C18.2482 14.0887 18.4082 13.6141 18.5936 13.0644C18.9147 12.1112 19.3145 10.9246 19.0414 9.78922C18.6341 8.09854 17.3093 7.45596 17.181 7.39748C17.1256 7.3357 16.7661 6.96663 16.1394 7.00244C16.0114 7.00967 15.891 7.01297 15.7601 7.01297C15.6998 7.01297 15.6439 7.01231 15.5901 7.01168C15.5403 7.01105 15.4923 7.01049 15.4446 7.01049C15.3186 7.01049 15.1752 7.01404 14.9823 7.03992C14.7174 7.07529 14.5758 7.13478 14.4507 7.18722C14.373 7.21993 14.2994 7.25083 14.2034 7.27221C14.0588 7.30454 13.9023 7.41018 13.7039 7.54387C13.534 7.65864 13.3409 7.78877 13.1055 7.907C12.772 8.07459 12.7112 8.12367 12.6193 8.19806C12.5685 8.23925 12.5108 8.28587 12.3913 8.36574C12.0993 8.56147 12.1817 8.92817 12.2686 9.10123C12.2618 9.10488 12.2548 9.10856 12.2481 9.1123C12.1226 9.1811 11.8469 9.5064 11.9351 9.44345C11.9426 9.43814 11.9512 9.43395 11.9605 9.43002C11.9575 9.43468 11.9542 9.43952 11.9512 9.44436C11.8667 9.46345 11.7798 9.49061 11.7104 9.52979C11.5057 9.64531 10.8796 10.5182 11.0204 11.3654C11.1611 12.2126 11.8764 12.7517 11.8764 12.7517C11.8764 12.7517 11.9915 12.8031 12.1321 12.726C12.2725 12.6491 12.0299 12.2126 12.0299 12.2126C12.0299 12.2126 11.8764 12.1229 11.9402 11.9559C12.0043 11.7891 12.1065 11.8402 12.1065 11.8402C12.1065 11.8402 12.1144 11.8066 12.1407 11.7548L13.0065 11.8333C13.0065 11.8333 13.0375 11.8126 13.1353 11.8229C13.2331 11.8333 13.3616 12.0194 13.4029 12.0194C13.4119 12.0194 13.4427 12.0241 13.4871 12.0305L13.4892 12.033C13.4215 12.0233 13.3758 12.0157 13.3758 12.0157L13.5831 12.336L13.826 12.6492L13.8143 12.6671C13.805 12.6811 13.5898 13.0117 13.6199 13.3093C13.6299 13.4118 13.7372 13.6281 13.8858 13.9276C14.1753 14.5114 14.6128 15.3938 14.6692 16.1294C14.7085 16.6426 14.5532 17.2282 14.3702 17.9032L14.0812 18.0381L13.8935 18.2899L13.5591 18.2689L13.7889 18.4158L13.5172 18.5207L13.9561 18.8357C13.9561 18.8357 13.747 18.8357 13.4753 18.7517C13.2038 18.6677 12.9946 18.8777 12.9946 18.8777C12.9946 18.8777 13.2457 18.9617 13.4545 19.0246C13.6634 19.0876 13.768 19.3185 13.768 19.3185C13.768 19.3185 13.5591 19.2136 13.3502 19.1505C13.1411 19.0876 12.953 19.1505 12.953 19.1505L13.1202 19.3185L12.535 19.4655C12.535 19.4655 12.8696 19.5915 13.2874 19.6963C13.7051 19.8013 13.4962 20.0532 13.4962 20.0532L12.6605 20.1163C12.6605 20.1163 12.9946 20.1791 13.2457 20.2C13.4962 20.2212 13.5379 20.5152 13.5379 20.5152L13.0156 20.2845L12.7648 20.3472L13.1411 20.578H12.3468L12.4516 20.7881L12.4307 20.9979C12.4307 20.9979 12.932 21.0609 13.0366 21.1239C13.1411 21.1871 12.7858 21.25 12.7858 21.25C12.7858 21.25 12.514 21.1871 12.2006 21.2289C11.8872 21.271 11.7202 21.4178 11.7202 21.4178C11.7202 21.4178 11.8872 21.5648 12.0963 21.5648C12.3051 21.5648 12.535 21.6697 12.535 21.6697L12.5769 21.9845L11.9081 21.9635L12.2425 22.1525H11.8872L12.5769 22.4884L11.8872 22.6143C11.8872 22.6143 12.2006 22.6984 12.514 22.8033C12.7259 22.8742 12.9371 22.8302 13.0524 22.7941L12.3468 23.0553L13.2038 22.9083C13.2038 22.9083 13.0992 22.9924 12.9113 23.0974C12.7231 23.2024 12.0127 23.2442 12.0127 23.2442L11.9081 23.4331C11.9081 23.4331 12.3468 23.6011 12.7439 23.6432C13.1411 23.6852 13.4545 24.105 13.4545 24.105H12.9113L13.0785 24.2517L13.6008 24.3357L13.0575 24.5877L13.8516 24.5667C13.8516 24.5667 14.2069 24.6086 14.2903 24.7765C14.3739 24.9444 14.1024 24.8395 14.1024 24.8395C14.1024 24.8395 13.768 24.6927 13.3502 24.7556C12.932 24.8184 12.7439 24.9236 12.7439 24.9236C12.7439 24.9236 13.0992 24.9236 13.4129 24.9025C13.7263 24.8815 14.0185 25.0913 14.0185 25.0913L12.5559 25.6162L14.2276 25.2175L12.8002 26.0071C12.8903 25.9577 13.4364 25.6702 14.1231 25.5744C14.8757 25.4696 14.6873 25.7421 14.6873 25.7421C14.6873 25.7421 14.6247 25.8892 14.2696 25.9101C13.914 25.9313 13.2457 26.6448 13.2457 26.6448C13.2457 26.6448 13.7889 26.372 14.4575 26.12C15.1263 25.8681 15.2515 26.162 15.2515 26.162L14.562 26.9599L15.7531 26.3511L14.8545 27.7155L16.4426 26.2881C16.4426 26.2881 16.213 26.519 16.4009 26.477C16.5891 26.435 16.8189 25.8052 16.8189 25.8052V26.225C16.8189 26.4768 17.0069 26.6868 17.0069 26.6868L17.2996 26.7078C17.2996 26.7078 17.0278 26.9389 17.0278 27.3167C17.0278 27.6945 17.2996 28.0514 17.2996 28.0514C17.2996 28.0514 17.3624 27.7364 17.3203 27.4217C17.2786 27.1069 17.7383 27.0437 17.7383 27.0437L17.9264 28.2402C17.9264 28.2402 17.9474 28.0095 17.9057 27.8623C17.8638 27.7155 18.3025 27.1696 18.3025 27.1696C18.3025 27.1696 18.2399 27.3796 18.177 27.6527C18.1146 27.9256 18.1563 27.8623 18.2815 28.3033C18.4068 28.7444 18.449 28.9331 18.449 28.9331L18.5952 28.5342C18.5952 28.5342 18.6369 28.6812 18.6995 28.8912C18.7624 29.101 19.0968 29.5 19.0968 29.5C19.0968 29.5 18.9086 29.0172 18.8458 28.7023C18.7829 28.3874 18.9503 28.1564 18.9503 28.1564C18.9503 28.1564 19.013 28.3453 19.0968 28.6183C19.1802 28.8912 19.7446 29.3532 19.7446 29.3532C19.7446 29.3532 19.4936 28.9751 19.389 28.6812C19.2847 28.3874 19.3683 28.1354 19.3683 28.1354C19.3683 28.1354 19.7236 28.6183 19.9323 28.8492C20.1412 29.0802 20.4341 29.29 20.4341 29.29C20.4341 29.29 20.0368 28.8492 19.8697 28.5974C19.7348 28.394 19.8042 28.054 19.8359 27.9305C19.828 27.997 19.8529 28.1237 20.0997 28.2402C20.4548 28.4087 20.5594 28.5133 20.5594 28.5133L20.1414 28.0095C20.1414 28.0095 19.828 27.8836 20.246 27.9256C20.5815 27.9593 20.809 28.2225 20.8856 28.3251L20.5594 27.8623C20.5594 27.8623 20.7266 27.9675 20.9564 28.0725C21.1863 28.1775 21.3537 28.4292 21.3537 28.4292L21.2282 28.0305L21.855 28.3874L20.9357 27.7155C20.9357 27.7155 20.8731 27.6107 21.2491 27.6107C21.6252 27.6107 22.0222 27.8205 22.0222 27.8205L21.2698 27.1906L22.6074 27.6318C22.6074 27.6318 22.3773 27.4217 21.9386 27.2747C21.4997 27.1276 21.6252 26.9599 21.6252 26.9599C21.6252 26.9599 21.6878 26.8549 22.0013 27.0017C22.3149 27.1487 22.8163 27.5895 22.8163 27.5895L22.5448 26.9808L23.0252 27.3376L22.8372 26.8339L23.3181 27.2537C23.3181 27.2537 23.3388 27.0648 23.1507 26.7288C22.9625 26.3929 22.8163 26.1411 22.8163 26.1411C22.8163 26.1411 22.9835 26.204 23.1716 26.3511C23.3598 26.4979 23.5477 26.8128 23.5477 26.8128C23.5477 26.8128 23.527 26.2461 23.4432 25.952C23.3598 25.6581 22.9625 25.1335 22.9625 25.1335L23.5687 25.7001C23.5687 25.7001 22.8372 24.5036 22.9208 24.6297C23.0044 24.7556 23.4432 24.9025 23.4432 24.9025L24.3627 25.4903L23.3181 24.3357C23.3181 24.3357 24.7386 24.8395 24.3418 24.6086C23.9447 24.3779 23.5687 23.9998 23.3181 23.853C23.0673 23.7061 22.5655 23.1392 22.5655 23.1392L23.8195 23.832L22.8372 22.9294C22.8372 22.9294 23.2762 23.2022 23.6732 23.4331C24.0702 23.6641 24.7598 24.3147 24.7598 24.3147C24.7598 24.3147 24.6342 23.958 24.2374 23.6432C23.8402 23.3283 23.527 22.8874 23.527 22.8874L24.3627 22.9714C24.3627 22.9714 23.7566 22.7613 23.4015 22.6143C23.0461 22.4677 23.1507 22.0477 23.1507 22.0477L23.1716 21.7958L23.4851 21.9215L23.7775 22.4884L23.7151 22.0057L24.6552 23.0342C24.6552 23.0342 24.1748 22.3416 24.0702 22.0057C23.9655 21.6698 24.091 21.6489 24.091 21.6489L25.0941 21.8796L24.4463 21.3128H25.6584C25.6584 21.3128 24.9686 20.935 24.7386 20.809Z" fill="white"/>
<path d="M26.356 11.4182C25.3528 10.1931 22.2385 11.0769 18.7137 13.3795C18.7118 13.4099 18.7048 13.4443 18.7048 13.4732C18.7048 13.5754 18.7083 13.6866 18.713 13.799C21.4107 12.2519 23.8164 11.8263 24.7143 12.935C25.346 13.7152 25.1073 15.1011 24.216 16.6944C23.3753 18.197 21.9544 19.8841 20.1295 21.4238C18.3516 22.9238 16.5136 24.0081 14.9366 24.5812C14.3605 24.7905 13.8208 24.9309 13.3311 24.9967C13.3292 24.9969 13.3273 24.9971 13.3252 24.9974C12.3239 25.1308 11.5329 24.9587 11.0988 24.4226C10.1958 23.3076 11.069 20.9565 13.0893 18.5288C13.1101 18.5037 13.1308 18.4786 13.1518 18.4535C13.2949 18.2837 13.441 18.1164 13.59 17.9517C13.6466 17.889 13.7025 17.8264 13.7607 17.7637C13.8815 17.6333 14.0068 17.503 14.134 17.373C14.1549 17.3516 14.1763 17.3302 14.1975 17.3087C14.4257 17.0771 14.6633 16.8468 14.9101 16.6184C14.9457 16.4832 14.979 16.3512 15.0084 16.2235C10.5938 20.1382 8.06349 24.4371 9.3235 25.9757C10.1551 26.9911 12.4376 26.5569 15.2014 25.0678C16.7716 24.2219 18.4966 23.0366 20.2007 21.5802C21.9444 20.0899 23.4193 18.5271 24.5201 17.0689C26.3885 14.5936 27.1766 12.4203 26.356 11.4182ZM21.3711 27.3945C21.3711 27.3945 21.3608 27.3787 21.342 27.3535L21.3711 27.3945Z" fill="#1976D2"/>
</svg>
