<svg width="169" height="32" viewBox="0 0 169 32" fill="none" xmlns="http://www.w3.org/2000/svg">
<g clip-path="url(#clip0_27266_610565)">
<path d="M4.04328 21.0354H11.2918C12.1659 21.0354 12.7487 20.834 12.7487 20.0657C12.7487 19.1692 12.1659 18.9679 11.2918 18.9679H4.04328V21.0354ZM4.04328 16.2235H11.2007C11.9475 16.2235 12.3845 15.9492 12.3845 15.1989C12.3845 14.4306 11.9475 14.156 11.2007 14.156H4.04328V16.2235ZM0 10.9726H11.6378C14.8614 10.9726 16.4278 11.8508 16.4278 14.4486C16.4278 16.7175 15.6083 17.1567 14.479 17.486V17.5408C16.2455 17.7603 16.9013 18.7118 16.9013 20.706C16.9013 23.6151 15.1893 24.2189 12.8764 24.2189H0V10.9726ZM19.3443 10.9726H23.3876V18.6203C23.3876 20.3035 23.9884 20.9622 25.6458 20.9622H29.6526C31.3099 20.9622 31.911 20.3035 31.911 18.6203V10.9726H35.9542V19.4985C35.9542 22.7918 34.2605 24.3652 30.545 24.3652H24.7533C21.038 24.3652 19.3443 22.7918 19.3443 19.4985V10.9726ZM38.0512 21.0354L47.5035 14.1928V14.156H38.3062V10.9726H53.4774V14.156L44.0433 20.9987V21.0354H53.696V24.2189H38.0512V21.0354ZM55.1552 21.0354L64.6074 14.1928V14.156H55.4102V10.9726H70.581V14.156L61.1469 20.9987V21.0354H70.7996V24.2189H55.1552V21.0354ZM71.6577 10.9726H75.61L78.4144 20.706H78.4512L81.8021 10.9726H85.5541L88.905 20.706H88.9417L91.7462 10.9726H95.6985L91.4183 24.2189H86.7745L83.6965 15.4733H83.6597L80.5817 24.2189H75.9379L71.6577 10.9726ZM121.494 17.486H128.178C129.271 17.486 129.671 17.0468 129.671 16.0954V15.6564C129.671 14.4854 129.088 14.2658 127.813 14.2658H121.494V17.486ZM117.45 10.9726H129.653C132.767 10.9726 133.605 12.5277 133.605 14.9061V15.7479C133.605 17.5225 133.204 18.5654 131.347 19.0046V19.0411C132.549 19.2607 133.55 19.7912 133.55 21.9685V24.2189H129.507V22.6272C129.507 21.2366 129.106 20.7792 127.85 20.7792H121.494V24.2189H117.45V10.9726ZM136.339 10.9726H140.382V20.8158H149.471V24.2189H136.339V10.9726ZM155.373 20.8158H162.549C164.279 20.8158 164.953 20.3218 164.953 18.4373V16.6442C164.953 14.7598 164.279 14.2658 162.549 14.2658H155.373V20.8158ZM151.33 10.9726H163.532C167.576 10.9726 168.996 12.308 168.996 15.5831V19.6082C168.996 22.8833 167.576 24.2189 163.532 24.2189H151.33V10.9726Z" fill="white"/>
<path d="M109.312 30.3292L109.354 30.3877C109.354 30.3877 109.339 30.3651 109.312 30.3292Z" fill="#100F0D"/>
<path d="M114.791 19.6395C114.465 19.4604 114.762 19.1618 114.762 19.1618L116.01 19.3108L114.477 18.5999C114.529 18.6235 114.763 18.7177 115.178 18.7436C115.653 18.7733 116.099 18.684 116.099 18.684C116.099 18.684 115.684 18.5346 115.326 18.5346C114.97 18.5346 114.881 18.2362 114.881 18.2362L116.07 18.1466C116.07 18.1466 115.921 17.9377 115 17.9676C114.078 17.9972 114.227 17.6389 114.227 17.6389C114.227 17.6389 114.554 17.4598 114.821 17.3704C115.089 17.2808 115.267 16.8926 115.267 16.8926C115.267 16.8926 114.821 17.0121 114.316 17.0121C113.811 17.0121 113.781 16.594 113.781 16.594C113.781 16.594 114.138 16.4746 114.405 16.206C114.673 15.9373 115.148 16.206 115.148 16.206C115.148 16.206 114.851 15.9669 114.554 15.9074C114.257 15.8476 113.722 15.9074 113.722 15.9074L114.791 15.3698C114.791 15.3698 114.376 15.4594 114.049 15.6388C113.722 15.8177 113.425 15.579 113.425 15.579L113.781 15.1908C113.781 15.1908 113.068 15.1312 112.681 15.1908C112.295 15.2506 111.82 15.3999 112.206 15.1609C112.592 14.922 113.009 13.9369 113.009 13.9369C113.009 13.9369 112.711 14.3249 112.325 14.6534C111.938 14.9818 111.403 14.8025 111.403 14.8025C111.403 14.8025 111.731 14.2952 111.968 13.8771C112.206 13.4592 111.79 13.1904 111.79 13.1904C111.79 13.1904 111.523 13.8175 111.195 14.2652C110.868 14.7132 110.571 14.1757 110.571 14.1757C110.571 14.1757 110.69 13.7873 110.868 13.6085C111.047 13.4292 111.463 13.2798 111.463 13.2798C111.463 13.2798 111.017 13.2798 110.72 13.3696C110.423 13.4592 110.185 13.8474 110.185 13.8474C110.185 13.8474 110.482 12.6532 110.363 13.0411C110.245 13.4292 109.531 13.5787 109.531 13.5787C109.531 13.5787 109.65 12.5934 109.561 12.8918C109.472 13.1904 108.758 13.3398 108.937 12.8321C109.115 12.3248 108.937 11.6976 108.937 11.6976C108.937 11.6976 108.788 11.9961 108.342 12.3843C107.896 12.7723 107.689 12.5934 107.57 12.3248C107.451 12.0559 106.916 11.3691 106.945 11.6378C106.975 11.9065 106.589 12.6532 106.5 12.4738C106.41 12.2947 105.905 11.9067 105.965 12.2052C106.008 12.4243 105.862 12.8473 105.781 13.0572C105.637 12.1987 105.561 11.2964 105.561 10.5881C105.561 10.0816 105.788 9.4066 106.052 8.62488C106.508 7.26912 107.077 5.58156 106.689 3.9668C106.109 1.56227 104.225 0.648371 104.043 0.565195C103.964 0.477329 103.453 -0.0475731 102.561 0.00336266C102.379 0.0136433 102.208 0.0183353 102.022 0.0183353C101.936 0.0183353 101.857 0.0174026 101.78 0.0165043C101.709 0.0156059 101.641 0.0148067 101.573 0.0148067C101.394 0.0148067 101.19 0.0198669 100.916 0.0566635C100.539 0.106968 100.338 0.191574 100.16 0.266165C100.049 0.312677 99.9444 0.356627 99.808 0.387035C99.6023 0.433014 99.3797 0.583261 99.0976 0.773399C98.8558 0.936623 98.5813 1.12171 98.2464 1.28985C97.7722 1.5282 97.6857 1.598 97.5549 1.7038C97.4827 1.76239 97.4006 1.8287 97.2307 1.94228C96.8154 2.22065 96.9326 2.74219 97.0562 2.98832C97.0466 2.99352 97.0366 2.99874 97.027 3.00406C96.8485 3.10191 96.4564 3.56456 96.5819 3.47503C96.5925 3.46748 96.6048 3.46153 96.618 3.45594C96.6137 3.46256 96.6091 3.46944 96.6048 3.47633C96.4845 3.50348 96.361 3.5421 96.2623 3.59783C95.9712 3.76212 95.0807 5.00363 95.281 6.20851C95.4811 7.41338 96.4985 8.18016 96.4985 8.18016C96.4985 8.18016 96.6621 8.25319 96.8621 8.14363C97.0618 8.0342 96.7167 7.41338 96.7167 7.41338C96.7167 7.41338 96.4985 7.28576 96.5892 7.04831C96.6803 6.81103 96.8257 6.88379 96.8257 6.88379C96.8257 6.88379 96.8369 6.83598 96.8743 6.76229L98.1057 6.87391C98.1057 6.87391 98.1497 6.84453 98.2888 6.8591C98.4279 6.87391 98.6107 7.13864 98.6694 7.13864C98.6823 7.13864 98.726 7.14526 98.7892 7.15438L98.7922 7.158C98.6958 7.14423 98.6309 7.13331 98.6309 7.13331L98.9257 7.58895L99.2711 8.03434L99.2546 8.05982C99.2413 8.07968 98.9353 8.54989 98.978 8.97319C98.9923 9.11888 99.1449 9.42663 99.3562 9.85248C99.7679 10.6828 100.39 11.9377 100.47 12.984C100.526 13.7139 100.305 14.5467 100.045 15.5067L99.6341 15.6985L99.3671 16.0567L98.8916 16.0268L99.2184 16.2357L98.832 16.385L99.4562 16.833C99.4562 16.833 99.1588 16.833 98.7723 16.7135C98.3862 16.594 98.0888 16.8926 98.0888 16.8926C98.0888 16.8926 98.4458 17.0121 98.7429 17.1016C99.0399 17.1912 99.1886 17.5196 99.1886 17.5196C99.1886 17.5196 98.8916 17.3704 98.5945 17.2807C98.2971 17.1912 98.0295 17.2807 98.0295 17.2807L98.2673 17.5196L97.435 17.7287C97.435 17.7287 97.9109 17.9079 98.5051 18.057C99.0992 18.2063 98.8022 18.5645 98.8022 18.5645L97.6135 18.6543C97.6135 18.6543 98.0888 18.7436 98.4458 18.7733C98.8022 18.8035 98.8614 19.2215 98.8614 19.2215L98.1186 18.8934L97.7619 18.9827L98.2971 19.3108H97.1674L97.3165 19.6097L97.2867 19.9081C97.2867 19.9081 97.9997 19.9977 98.1484 20.0873C98.2971 20.1772 97.7917 20.2667 97.7917 20.2667C97.7917 20.2667 97.4052 20.1772 96.9595 20.2367C96.5137 20.2965 96.2762 20.5053 96.2762 20.5053C96.2762 20.5053 96.5137 20.7144 96.8111 20.7144C97.1082 20.7144 97.435 20.8635 97.435 20.8635L97.4947 21.3113L96.5435 21.2814L97.0191 21.5502H96.5137L97.4947 22.0279L96.5137 22.207C96.5137 22.207 96.9595 22.3266 97.4052 22.4758C97.7066 22.5766 98.007 22.514 98.1709 22.4627L97.1674 22.8342L98.3862 22.6251C98.3862 22.6251 98.2375 22.7447 97.9702 22.894C97.7026 23.0433 96.6922 23.1028 96.6922 23.1028L96.5435 23.3715C96.5435 23.3715 97.1674 23.6105 97.7321 23.6703C98.2971 23.73 98.7429 24.3271 98.7429 24.3271H97.9702L98.208 24.5357L98.9509 24.6552L98.1782 25.0135L99.3075 24.9838C99.3075 24.9838 99.8129 25.0433 99.9315 25.2822C100.05 25.5209 99.6642 25.3717 99.6642 25.3717C99.6642 25.3717 99.1886 25.1629 98.5945 25.2524C97.9997 25.3417 97.7321 25.4913 97.7321 25.4913C97.7321 25.4913 98.2375 25.4913 98.6836 25.4613C99.1294 25.4315 99.545 25.7299 99.545 25.7299L97.4648 26.4764L99.8424 25.9094L97.8123 27.0322C97.9404 26.962 98.717 26.5532 99.6937 26.4168C100.764 26.2678 100.496 26.6555 100.496 26.6555C100.496 26.6555 100.407 26.8647 99.902 26.8943C99.3963 26.9245 98.4458 27.9392 98.4458 27.9392C98.4458 27.9392 99.2185 27.5513 100.169 27.1929C101.12 26.8345 101.299 27.2527 101.299 27.2527L100.318 28.3873L102.012 27.5215L100.734 29.462L102.993 27.432C102.993 27.432 102.666 27.7604 102.933 27.7006C103.201 27.6408 103.528 26.7452 103.528 26.7452V27.3422C103.528 27.7004 103.795 27.999 103.795 27.999L104.211 28.0289C104.211 28.0289 103.825 28.3576 103.825 28.8948C103.825 29.4322 104.211 29.9397 104.211 29.9397C104.211 29.9397 104.301 29.4917 104.241 29.0441C104.182 28.5965 104.835 28.5066 104.835 28.5066L105.103 30.2083C105.103 30.2083 105.133 29.8802 105.073 29.6708C105.014 29.462 105.638 28.6857 105.638 28.6857C105.638 28.6857 105.549 28.9844 105.459 29.3727C105.37 29.7609 105.43 29.6708 105.608 30.298C105.786 30.9253 105.846 31.1937 105.846 31.1937L106.054 30.6264C106.054 30.6264 106.113 30.8355 106.202 31.1342C106.292 31.4326 106.767 32 106.767 32C106.767 32 106.5 31.3133 106.41 30.8656C106.321 30.4176 106.559 30.089 106.559 30.089C106.559 30.089 106.648 30.3578 106.767 30.746C106.886 31.1342 107.689 31.7912 107.689 31.7912C107.689 31.7912 107.332 31.2535 107.183 30.8355C107.035 30.4176 107.154 30.0593 107.154 30.0593C107.154 30.0593 107.659 30.746 107.956 31.0744C108.253 31.403 108.669 31.7013 108.669 31.7013C108.669 31.7013 108.104 31.0744 107.867 30.7162C107.675 30.427 107.774 29.9435 107.819 29.7678C107.807 29.8624 107.843 30.0425 108.194 30.2083C108.699 30.4479 108.848 30.5967 108.848 30.5967L108.253 29.8802C108.253 29.8802 107.807 29.7011 108.402 29.7609C108.879 29.8087 109.203 30.1832 109.312 30.3291L108.848 29.6708C108.848 29.6708 109.085 29.8204 109.412 29.9698C109.739 30.1191 109.977 30.4771 109.977 30.4771L109.799 29.91L110.69 30.4176L109.383 29.462C109.383 29.462 109.294 29.3129 109.829 29.3129C110.363 29.3129 110.928 29.6113 110.928 29.6113L109.858 28.7155L111.76 29.3429C111.76 29.3429 111.433 29.0442 110.809 28.835C110.185 28.6259 110.363 28.3873 110.363 28.3873C110.363 28.3873 110.452 28.238 110.898 28.4469C111.344 28.656 112.057 29.2829 112.057 29.2829L111.671 28.4171L112.354 28.9246L112.087 28.2082L112.771 28.8053C112.771 28.8053 112.801 28.5366 112.533 28.0588C112.265 27.5811 112.057 27.2229 112.057 27.2229C112.057 27.2229 112.295 27.3124 112.563 27.5215C112.83 27.7304 113.098 28.1782 113.098 28.1782C113.098 28.1782 113.068 27.3722 112.949 26.954C112.83 26.5359 112.265 25.7898 112.265 25.7898L113.127 26.5957C113.127 26.5957 112.087 24.894 112.206 25.0733C112.325 25.2524 112.949 25.4613 112.949 25.4613L114.257 26.2973L112.771 24.6552C112.771 24.6552 114.791 25.3717 114.227 25.0433C113.662 24.7151 113.127 24.1775 112.771 23.9687C112.414 23.7598 111.701 22.9535 111.701 22.9535L113.484 23.9389L112.087 22.6551C112.087 22.6551 112.711 23.0431 113.276 23.3715C113.841 23.7 114.821 24.6253 114.821 24.6253C114.821 24.6253 114.643 24.118 114.079 23.6703C113.514 23.2224 113.068 22.5953 113.068 22.5953L114.257 22.7149C114.257 22.7149 113.395 22.416 112.89 22.207C112.384 21.9984 112.533 21.4011 112.533 21.4011L112.563 21.0428L113.009 21.2216L113.425 22.0279L113.336 21.3414L114.673 22.8042C114.673 22.8042 113.99 21.8191 113.841 21.3414C113.692 20.8637 113.87 20.834 113.87 20.834L115.297 21.1621L114.376 20.356H116.099C116.099 20.356 115.119 19.8186 114.791 19.6395Z" fill="white"/>
<path d="M97.8115 27.0324C97.7993 27.0392 97.791 27.0439 97.791 27.0439L97.8115 27.0324Z" fill="#100F0D"/>
<path d="M116.395 7.70581C114.968 5.96342 110.539 7.2204 105.526 10.4952C105.523 10.5385 105.513 10.5873 105.513 10.6284C105.513 10.7738 105.518 10.932 105.525 11.0918C109.362 8.89146 112.783 8.28611 114.06 9.86304C114.959 10.9727 114.619 12.9437 113.351 15.2097C112.156 17.3467 110.135 19.7462 107.54 21.9359C105.011 24.0694 102.397 25.6115 100.154 26.4265C99.3348 26.7242 98.5672 26.9239 97.8707 27.0174C97.868 27.0178 97.8654 27.0181 97.8624 27.0185C96.4383 27.2082 95.3133 26.9635 94.696 26.201C93.4116 24.6152 94.6536 21.2714 97.5269 17.8186C97.5564 17.7829 97.5859 17.7473 97.6157 17.7115C97.8193 17.47 98.0271 17.2321 98.239 16.9979C98.3194 16.9088 98.3989 16.8196 98.4817 16.7305C98.6536 16.545 98.8318 16.3598 99.0126 16.1749C99.0424 16.1443 99.0729 16.1139 99.103 16.0834C99.4276 15.754 99.7654 15.4264 100.116 15.1017C100.167 14.9093 100.214 14.7216 100.256 14.54C93.9776 20.1076 90.379 26.2217 92.171 28.4098C93.3537 29.854 96.5999 29.2364 100.531 27.1187C102.764 25.9155 105.217 24.2297 107.641 22.1584C110.121 20.0389 112.218 17.8163 113.784 15.7424C116.441 12.222 117.562 9.13097 116.395 7.70581ZM109.305 30.4277C109.305 30.4277 109.291 30.4053 109.264 30.3694L109.305 30.4277Z" fill="#1E88E5"/>
</g>
<defs>
<clipPath id="clip0_27266_610565">
<rect width="169" height="32" fill="white"/>
</clipPath>
</defs>
</svg>
