<svg width="26" height="26" viewBox="0 0 26 26" fill="none" xmlns="http://www.w3.org/2000/svg">
<path fill-rule="evenodd" clip-rule="evenodd" d="M26 13C26 16.4478 24.6304 19.7544 22.1924 22.1924C19.7544 24.6304 16.4478 26 13 26C9.55219 26 6.24558 24.6304 3.80761 22.1924C1.36964 19.7544 0 16.4478 0 13C0 9.55219 1.36964 6.24558 3.80761 3.80761C6.24558 1.36964 9.55219 0 13 0C16.4478 0 19.7544 1.36964 22.1924 3.80761C24.6304 6.24558 26 9.55219 26 13ZM16.25 8.125C16.25 8.98695 15.9076 9.8136 15.2981 10.4231C14.6886 11.0326 13.862 11.375 13 11.375C12.138 11.375 11.3114 11.0326 10.7019 10.4231C10.0924 9.8136 9.75 8.98695 9.75 8.125C9.75 7.26305 10.0924 6.4364 10.7019 5.8269C11.3114 5.21741 12.138 4.875 13 4.875C13.862 4.875 14.6886 5.21741 15.2981 5.8269C15.9076 6.4364 16.25 7.26305 16.25 8.125ZM13 14.625C11.4442 14.6247 9.92107 15.071 8.61155 15.911C7.30203 16.751 6.2612 17.9493 5.61275 19.3635C6.5271 20.4272 7.66069 21.2806 8.93578 21.8652C10.2109 22.4497 11.5973 22.7515 13 22.75C14.4027 22.7515 15.7891 22.4497 17.0642 21.8652C18.3393 21.2806 19.4729 20.4272 20.3872 19.3635C19.7388 17.9493 18.698 16.751 17.3885 15.911C16.0789 15.071 14.5558 14.6247 13 14.625Z" fill="#124EB0"/>
</svg>
