<svg width="52" height="52" viewBox="0 0 52 52" fill="none" xmlns="http://www.w3.org/2000/svg">
<path d="M32.0897 14.7313C32.0897 15.5536 31.4311 16.1998 30.593 16.1998H19.3086C18.4705 16.1998 17.8119 15.5536 17.8119 14.7313C17.8119 13.9089 18.4705 13.2627 19.3086 13.2627H30.593C31.4315 13.2627 32.0897 13.9089 32.0897 14.7313ZM32.0305 23.2683C32.0305 22.446 31.372 21.7998 30.5339 21.7998H9.3301C8.49197 21.7998 7.83341 22.446 7.83341 23.2683C7.83341 24.0907 8.49197 24.7369 9.3301 24.7369H30.474C31.3723 24.7369 32.0305 24.0907 32.0305 23.2683ZM22.8002 33.1369C23.3991 32.0797 24.1173 31.0807 24.9555 30.1998H9.26025C8.42213 30.1998 7.76356 30.846 7.76356 31.6683C7.76356 32.4907 8.42213 33.1369 9.26025 33.1369H22.8002ZM38.536 23.2585C39.015 23.1999 39.494 23.1999 39.9729 23.1999C40.5117 23.1999 40.9906 23.1999 41.5294 23.2585V7.02628C41.5294 3.56065 38.7156 0.799805 35.1835 0.799805L14.4095 0.800214C14.0504 0.800214 13.6913 0.858808 13.3321 0.976407C12.973 1.09401 12.6736 1.32879 12.4343 1.56399L1.53735 11.8433C1.23793 12.0781 1.05836 12.4309 0.878789 12.7833C0.759354 13.0771 0.699219 13.488 0.699219 13.8404V44.9733C0.699219 48.439 3.51299 51.1998 7.04506 51.1998H31.2315C30.1541 50.3774 29.1359 49.3789 28.358 48.2627H7.04517C5.18938 48.2627 3.6927 46.7942 3.6927 44.9733L3.69228 14.7215H9.02048C12.4928 14.7215 15.3663 11.902 15.3663 8.49504V3.73709H35.2423C37.0981 3.73709 38.5948 5.20563 38.5948 7.02651V23.2587L38.536 23.2585Z" fill="#8E99B2"/>
<path fill-rule="evenodd" clip-rule="evenodd" d="M39.5 26.5C32.8726 26.5 27.5 31.8726 27.5 38.5C27.5 45.1274 32.8726 50.5 39.5 50.5C46.1274 50.5 51.5 45.1274 51.5 38.5C51.5 31.8726 46.1274 26.5 39.5 26.5ZM46.8713 43.8089L34.1911 31.1287C35.6844 30.0512 37.5175 29.4167 39.5 29.4167C44.5166 29.4167 48.5833 33.4834 48.5833 38.5C48.5833 40.4825 47.9488 42.3156 46.8713 43.8089ZM30.4167 38.5C30.4167 36.5175 31.0513 34.6844 32.1287 33.1911L44.8089 45.8713C43.3156 46.9487 41.4825 47.5833 39.5 47.5833C34.4834 47.5833 30.4167 43.5166 30.4167 38.5Z" fill="#8E99B2"/>
</svg>
